<?xml version="1.0" encoding="UTF-8" standalone="no"?>
<!-- Created with Inkscape (http://www.inkscape.org/) -->

<svg
   xmlns:dc="http://purl.org/dc/elements/1.1/"
   xmlns:cc="http://creativecommons.org/ns#"
   xmlns:rdf="http://www.w3.org/1999/02/22-rdf-syntax-ns#"
   xmlns:svg="http://www.w3.org/2000/svg"
   xmlns="http://www.w3.org/2000/svg"
   xmlns:sodipodi="http://sodipodi.sourceforge.net/DTD/sodipodi-0.dtd"
   xmlns:inkscape="http://www.inkscape.org/namespaces/inkscape"
   sodipodi:docname="logo.svg"
   inkscape:version="0.48.4 r9939"
   version="1.1"
   id="svg2"
   height="101.75673"
   width="74.685066">
  <sodipodi:namedview
     id="base"
     pagecolor="#ffffff"
     bordercolor="#666666"
     borderopacity="1.0"
     inkscape:pageopacity="0.0"
     inkscape:pageshadow="2"
     inkscape:zoom="5.1070717"
     inkscape:cx="-4.4820876"
     inkscape:cy="58.99391"
     inkscape:document-units="px"
     inkscape:current-layer="layer1"
     showgrid="false"
     inkscape:object-paths="true"
     inkscape:window-width="1916"
     inkscape:window-height="1172"
     inkscape:window-x="0"
     inkscape:window-y="0"
     inkscape:window-maximized="0"
     inkscape:snap-nodes="false"
     fit-margin-top="0"
     fit-margin-left="0"
     fit-margin-right="0"
     fit-margin-bottom="0" />
  <defs
     id="defs4">
    <inkscape:path-effect
       effect="skeletal"
       id="path-effect7722"
       is_visible="true"
       pattern="m -59.074293,59.730872 1,0"
       copytype="single_stretched"
       prop_scale="1"
       scale_y_rel="false"
       spacing="0"
       normal_offset="0"
       tang_offset="0"
       prop_units="false"
       vertical_pattern="false"
       fuse_tolerance="0" />
    <inkscape:path-effect
       effect="skeletal"
       id="path-effect7718"
       is_visible="true"
       pattern="m -44.252365,50.518187 1,0"
       copytype="single_stretched"
       prop_scale="1"
       scale_y_rel="false"
       spacing="0"
       normal_offset="0"
       tang_offset="0"
       prop_units="false"
       vertical_pattern="false"
       fuse_tolerance="0" />
    <inkscape:path-effect
       fuse_tolerance="0"
       vertical_pattern="false"
       prop_units="false"
       tang_offset="0"
       normal_offset="0"
       spacing="0"
       scale_y_rel="false"
       prop_scale="1"
       copytype="single_stretched"
       pattern="m -64.0743,59.730867 1,0"
       is_visible="true"
       id="path-effect7102"
       effect="skeletal" />
    <inkscape:path-effect
       bendpath4="m 314.07431,285.97388 0,6.65743"
       bendpath3="m 314.07431,292.63131 162.51975,0"
       bendpath2="m 476.59406,285.97388 0,6.65743"
       bendpath1="m 314.07431,285.97388 162.51975,0"
       xx="true"
       yy="true"
       is_visible="true"
       id="path-effect7051"
       effect="envelope" />
    <inkscape:path-effect
       bendpath4="m 262.38128,215.09176 0,11.74842"
       bendpath3="m 262.38128,226.84018 2.34968,0"
       bendpath2="m 264.73096,215.09176 0,11.74842"
       bendpath1="m 262.38128,215.09176 2.34968,0"
       xx="true"
       yy="true"
       is_visible="true"
       id="path-effect6999"
       effect="envelope" />
    <inkscape:path-effect
       fuse_tolerance="0"
       vertical_pattern="false"
       prop_units="false"
       tang_offset="0"
       normal_offset="0"
       spacing="0"
       scale_y_rel="false"
       prop_scale="1"
       copytype="single_stretched"
       pattern="M 0,0 1,0"
       is_visible="true"
       id="path-effect6997"
       effect="skeletal" />
    <inkscape:path-effect
       fuse_tolerance="0"
       vertical_pattern="false"
       prop_units="false"
       tang_offset="0"
       normal_offset="0"
       spacing="0"
       scale_y_rel="true"
       prop_scale="1"
       copytype="single_stretched"
       pattern="M 0,0 1,0"
       is_visible="true"
       id="path-effect6995"
       effect="skeletal" />
    <inkscape:path-effect
       scale_y_rel="false"
       prop_scale="1"
       strokepath="m 462.15625,358.60937 62.625,0"
       endpoint_spacing_variation="0;1"
       endpoint_edge_variation="0;1"
       startpoint_spacing_variation="0;1"
       startpoint_edge_variation="0;1"
       count="5"
       is_visible="true"
       id="path-effect3085"
       effect="curvestitching" />
    <inkscape:path-effect
       fuse_tolerance="0"
       vertical_pattern="false"
       prop_units="false"
       tang_offset="0"
       normal_offset="0"
       spacing="0"
       scale_y_rel="false"
       prop_scale="1"
       copytype="single_stretched"
       pattern="m 53.259484,-190.32433 1,0"
       is_visible="true"
       id="path-effect3083"
       effect="skeletal" />
    <inkscape:path-effect
       effect="skeletal"
       id="path-effect7722-1"
       is_visible="true"
       pattern="m -49.07429,59.730868 1,0"
       copytype="single_stretched"
       prop_scale="1"
       scale_y_rel="false"
       spacing="0"
       normal_offset="0"
       tang_offset="0"
       prop_units="false"
       vertical_pattern="false"
       fuse_tolerance="0" />
    <inkscape:path-effect
       fuse_tolerance="0"
       vertical_pattern="false"
       prop_units="false"
       tang_offset="0"
       normal_offset="0"
       spacing="0"
       scale_y_rel="false"
       prop_scale="1"
       copytype="single_stretched"
       pattern="m -54.0743,59.730868 1,0"
       is_visible="true"
       id="path-effect7102-2"
       effect="skeletal" />
    <inkscape:path-effect
       effect="skeletal"
       id="path-effect7722-1-3"
       is_visible="true"
       pattern="m -29.074291,59.730868 1,0"
       copytype="single_stretched"
       prop_scale="1"
       scale_y_rel="false"
       spacing="0"
       normal_offset="0"
       tang_offset="0"
       prop_units="false"
       vertical_pattern="false"
       fuse_tolerance="0" />
    <inkscape:path-effect
       fuse_tolerance="0"
       vertical_pattern="false"
       prop_units="false"
       tang_offset="0"
       normal_offset="0"
       spacing="0"
       scale_y_rel="false"
       prop_scale="1"
       copytype="single_stretched"
       pattern="m -34.074301,59.730868 1,0"
       is_visible="true"
       id="path-effect7102-2-8"
       effect="skeletal" />
    <inkscape:path-effect
       effect="skeletal"
       id="path-effect7722-8"
       is_visible="true"
       pattern="m -39.074291,59.730878 1,0"
       copytype="single_stretched"
       prop_scale="1"
       scale_y_rel="false"
       spacing="0"
       normal_offset="0"
       tang_offset="0"
       prop_units="false"
       vertical_pattern="false"
       fuse_tolerance="0" />
    <inkscape:path-effect
       fuse_tolerance="0"
       vertical_pattern="false"
       prop_units="false"
       tang_offset="0"
       normal_offset="0"
       spacing="0"
       scale_y_rel="false"
       prop_scale="1"
       copytype="single_stretched"
       pattern="m -44.074301,59.730868 1,0"
       is_visible="true"
       id="path-effect7102-1"
       effect="skeletal" />
    <inkscape:path-effect
       effect="skeletal"
       id="path-effect7722-1-3-1"
       is_visible="true"
       pattern="m 10.925711,59.730875 1,0"
       copytype="single_stretched"
       prop_scale="1"
       scale_y_rel="false"
       spacing="0"
       normal_offset="0"
       tang_offset="0"
       prop_units="false"
       vertical_pattern="false"
       fuse_tolerance="0" />
    <inkscape:path-effect
       fuse_tolerance="0"
       vertical_pattern="false"
       prop_units="false"
       tang_offset="0"
       normal_offset="0"
       spacing="0"
       scale_y_rel="false"
       prop_scale="1"
       copytype="single_stretched"
       pattern="m 5.9257007,59.730875 1,0"
       is_visible="true"
       id="path-effect7102-2-8-2"
       effect="skeletal" />
    <inkscape:path-effect
       effect="skeletal"
       id="path-effect7722-8-5"
       is_visible="true"
       pattern="m 0.92571124,59.730885 0.99999946,0"
       copytype="single_stretched"
       prop_scale="1"
       scale_y_rel="false"
       spacing="0"
       normal_offset="0"
       tang_offset="0"
       prop_units="false"
       vertical_pattern="false"
       fuse_tolerance="0" />
    <inkscape:path-effect
       fuse_tolerance="0"
       vertical_pattern="false"
       prop_units="false"
       tang_offset="0"
       normal_offset="0"
       spacing="0"
       scale_y_rel="false"
       prop_scale="1"
       copytype="single_stretched"
       pattern="m -4.0742988,59.730875 1,0"
       is_visible="true"
       id="path-effect7102-1-7"
       effect="skeletal" />
    <inkscape:path-effect
       effect="skeletal"
       id="path-effect7722-1-1"
       is_visible="true"
       pattern="m -9.074288,59.730875 0.9999992,0"
       copytype="single_stretched"
       prop_scale="1"
       scale_y_rel="false"
       spacing="0"
       normal_offset="0"
       tang_offset="0"
       prop_units="false"
       vertical_pattern="false"
       fuse_tolerance="0" />
    <inkscape:path-effect
       fuse_tolerance="0"
       vertical_pattern="false"
       prop_units="false"
       tang_offset="0"
       normal_offset="0"
       spacing="0"
       scale_y_rel="false"
       prop_scale="1"
       copytype="single_stretched"
       pattern="m -14.074298,59.730875 1,0"
       is_visible="true"
       id="path-effect7102-2-3"
       effect="skeletal" />
    <inkscape:path-effect
       effect="skeletal"
       id="path-effect7722-9"
       is_visible="true"
       pattern="m -19.074288,59.730885 1,0"
       copytype="single_stretched"
       prop_scale="1"
       scale_y_rel="false"
       spacing="0"
       normal_offset="0"
       tang_offset="0"
       prop_units="false"
       vertical_pattern="false"
       fuse_tolerance="0" />
    <inkscape:path-effect
       fuse_tolerance="0"
       vertical_pattern="false"
       prop_units="false"
       tang_offset="0"
       normal_offset="0"
       spacing="0"
       scale_y_rel="false"
       prop_scale="1"
       copytype="single_stretched"
       pattern="m -24.074298,59.730875 1,0"
       is_visible="true"
       id="path-effect7102-4"
       effect="skeletal" />
    <inkscape:path-effect
       effect="skeletal"
       id="path-effect7722-1-3-1-2"
       is_visible="true"
       pattern="m 90.925708,59.730881 0.999996,0"
       copytype="single_stretched"
       prop_scale="1"
       scale_y_rel="false"
       spacing="0"
       normal_offset="0"
       tang_offset="0"
       prop_units="false"
       vertical_pattern="false"
       fuse_tolerance="0" />
    <inkscape:path-effect
       fuse_tolerance="0"
       vertical_pattern="false"
       prop_units="false"
       tang_offset="0"
       normal_offset="0"
       spacing="0"
       scale_y_rel="false"
       prop_scale="1"
       copytype="single_stretched"
       pattern="m 85.925698,59.730881 1,0"
       is_visible="true"
       id="path-effect7102-2-8-2-9"
       effect="skeletal" />
    <inkscape:path-effect
       effect="skeletal"
       id="path-effect7722-8-5-8"
       is_visible="true"
       pattern="m 80.925708,59.730891 1,0"
       copytype="single_stretched"
       prop_scale="1"
       scale_y_rel="false"
       spacing="0"
       normal_offset="0"
       tang_offset="0"
       prop_units="false"
       vertical_pattern="false"
       fuse_tolerance="0" />
    <inkscape:path-effect
       fuse_tolerance="0"
       vertical_pattern="false"
       prop_units="false"
       tang_offset="0"
       normal_offset="0"
       spacing="0"
       scale_y_rel="false"
       prop_scale="1"
       copytype="single_stretched"
       pattern="m 75.925701,59.730881 1,0"
       is_visible="true"
       id="path-effect7102-1-7-6"
       effect="skeletal" />
    <inkscape:path-effect
       effect="skeletal"
       id="path-effect7722-1-1-5"
       is_visible="true"
       pattern="m 70.925711,59.730881 1,0"
       copytype="single_stretched"
       prop_scale="1"
       scale_y_rel="false"
       spacing="0"
       normal_offset="0"
       tang_offset="0"
       prop_units="false"
       vertical_pattern="false"
       fuse_tolerance="0" />
    <inkscape:path-effect
       fuse_tolerance="0"
       vertical_pattern="false"
       prop_units="false"
       tang_offset="0"
       normal_offset="0"
       spacing="0"
       scale_y_rel="false"
       prop_scale="1"
       copytype="single_stretched"
       pattern="m 65.925701,59.730881 1,0"
       is_visible="true"
       id="path-effect7102-2-3-0"
       effect="skeletal" />
    <inkscape:path-effect
       effect="skeletal"
       id="path-effect7722-9-1"
       is_visible="true"
       pattern="m 60.925711,59.730891 1,0"
       copytype="single_stretched"
       prop_scale="1"
       scale_y_rel="false"
       spacing="0"
       normal_offset="0"
       tang_offset="0"
       prop_units="false"
       vertical_pattern="false"
       fuse_tolerance="0" />
    <inkscape:path-effect
       fuse_tolerance="0"
       vertical_pattern="false"
       prop_units="false"
       tang_offset="0"
       normal_offset="0"
       spacing="0"
       scale_y_rel="false"
       prop_scale="1"
       copytype="single_stretched"
       pattern="m 55.925701,59.730881 1,0"
       is_visible="true"
       id="path-effect7102-4-5"
       effect="skeletal" />
    <inkscape:path-effect
       effect="skeletal"
       id="path-effect7722-1-3-12"
       is_visible="true"
       pattern="m 50.925711,59.730871 1,0"
       copytype="single_stretched"
       prop_scale="1"
       scale_y_rel="false"
       spacing="0"
       normal_offset="0"
       tang_offset="0"
       prop_units="false"
       vertical_pattern="false"
       fuse_tolerance="0" />
    <inkscape:path-effect
       fuse_tolerance="0"
       vertical_pattern="false"
       prop_units="false"
       tang_offset="0"
       normal_offset="0"
       spacing="0"
       scale_y_rel="false"
       prop_scale="1"
       copytype="single_stretched"
       pattern="m 45.925701,59.730871 1,0"
       is_visible="true"
       id="path-effect7102-2-8-5"
       effect="skeletal" />
    <inkscape:path-effect
       effect="skeletal"
       id="path-effect7722-8-2"
       is_visible="true"
       pattern="m 40.925711,59.730881 1,0"
       copytype="single_stretched"
       prop_scale="1"
       scale_y_rel="false"
       spacing="0"
       normal_offset="0"
       tang_offset="0"
       prop_units="false"
       vertical_pattern="false"
       fuse_tolerance="0" />
    <inkscape:path-effect
       fuse_tolerance="0"
       vertical_pattern="false"
       prop_units="false"
       tang_offset="0"
       normal_offset="0"
       spacing="0"
       scale_y_rel="false"
       prop_scale="1"
       copytype="single_stretched"
       pattern="m 35.925701,59.730871 1,0"
       is_visible="true"
       id="path-effect7102-1-75"
       effect="skeletal" />
    <inkscape:path-effect
       effect="skeletal"
       id="path-effect7722-1-31"
       is_visible="true"
       pattern="m 30.925711,59.730871 1,0"
       copytype="single_stretched"
       prop_scale="1"
       scale_y_rel="false"
       spacing="0"
       normal_offset="0"
       tang_offset="0"
       prop_units="false"
       vertical_pattern="false"
       fuse_tolerance="0" />
    <inkscape:path-effect
       fuse_tolerance="0"
       vertical_pattern="false"
       prop_units="false"
       tang_offset="0"
       normal_offset="0"
       spacing="0"
       scale_y_rel="false"
       prop_scale="1"
       copytype="single_stretched"
       pattern="m 25.925701,59.730871 1,0"
       is_visible="true"
       id="path-effect7102-2-1"
       effect="skeletal" />
    <inkscape:path-effect
       effect="skeletal"
       id="path-effect7722-3"
       is_visible="true"
       pattern="m 20.925711,59.730881 1,0"
       copytype="single_stretched"
       prop_scale="1"
       scale_y_rel="false"
       spacing="0"
       normal_offset="0"
       tang_offset="0"
       prop_units="false"
       vertical_pattern="false"
       fuse_tolerance="0" />
    <inkscape:path-effect
       fuse_tolerance="0"
       vertical_pattern="false"
       prop_units="false"
       tang_offset="0"
       normal_offset="0"
       spacing="0"
       scale_y_rel="false"
       prop_scale="1"
       copytype="single_stretched"
       pattern="m 15.925701,59.730871 1,0"
       is_visible="true"
       id="path-effect7102-46"
       effect="skeletal" />
    <inkscape:path-effect
       effect="skeletal"
       id="path-effect7722-1-3-1-2-5"
       is_visible="true"
       pattern="m 250.92571,59.730891 0.99999,0"
       copytype="single_stretched"
       prop_scale="1"
       scale_y_rel="false"
       spacing="0"
       normal_offset="0"
       tang_offset="0"
       prop_units="false"
       vertical_pattern="false"
       fuse_tolerance="0" />
    <inkscape:path-effect
       fuse_tolerance="0"
       vertical_pattern="false"
       prop_units="false"
       tang_offset="0"
       normal_offset="0"
       spacing="0"
       scale_y_rel="false"
       prop_scale="1"
       copytype="single_stretched"
       pattern="m 245.9257,59.730891 1,0"
       is_visible="true"
       id="path-effect7102-2-8-2-9-3"
       effect="skeletal" />
    <inkscape:path-effect
       effect="skeletal"
       id="path-effect7722-8-5-8-3"
       is_visible="true"
       pattern="m 240.92571,59.730901 1,0"
       copytype="single_stretched"
       prop_scale="1"
       scale_y_rel="false"
       spacing="0"
       normal_offset="0"
       tang_offset="0"
       prop_units="false"
       vertical_pattern="false"
       fuse_tolerance="0" />
    <inkscape:path-effect
       fuse_tolerance="0"
       vertical_pattern="false"
       prop_units="false"
       tang_offset="0"
       normal_offset="0"
       spacing="0"
       scale_y_rel="false"
       prop_scale="1"
       copytype="single_stretched"
       pattern="m 235.9257,59.730891 1,0"
       is_visible="true"
       id="path-effect7102-1-7-6-0"
       effect="skeletal" />
    <inkscape:path-effect
       effect="skeletal"
       id="path-effect7722-1-1-5-5"
       is_visible="true"
       pattern="m 230.92571,59.730891 1,0"
       copytype="single_stretched"
       prop_scale="1"
       scale_y_rel="false"
       spacing="0"
       normal_offset="0"
       tang_offset="0"
       prop_units="false"
       vertical_pattern="false"
       fuse_tolerance="0" />
    <inkscape:path-effect
       fuse_tolerance="0"
       vertical_pattern="false"
       prop_units="false"
       tang_offset="0"
       normal_offset="0"
       spacing="0"
       scale_y_rel="false"
       prop_scale="1"
       copytype="single_stretched"
       pattern="m 225.9257,59.730891 1,0"
       is_visible="true"
       id="path-effect7102-2-3-0-2"
       effect="skeletal" />
    <inkscape:path-effect
       effect="skeletal"
       id="path-effect7722-9-1-7"
       is_visible="true"
       pattern="m 220.92571,59.730901 1,0"
       copytype="single_stretched"
       prop_scale="1"
       scale_y_rel="false"
       spacing="0"
       normal_offset="0"
       tang_offset="0"
       prop_units="false"
       vertical_pattern="false"
       fuse_tolerance="0" />
    <inkscape:path-effect
       fuse_tolerance="0"
       vertical_pattern="false"
       prop_units="false"
       tang_offset="0"
       normal_offset="0"
       spacing="0"
       scale_y_rel="false"
       prop_scale="1"
       copytype="single_stretched"
       pattern="m 215.9257,59.730891 1,0"
       is_visible="true"
       id="path-effect7102-4-5-1"
       effect="skeletal" />
    <inkscape:path-effect
       effect="skeletal"
       id="path-effect7722-1-3-12-5"
       is_visible="true"
       pattern="m 210.92571,59.730881 1,0"
       copytype="single_stretched"
       prop_scale="1"
       scale_y_rel="false"
       spacing="0"
       normal_offset="0"
       tang_offset="0"
       prop_units="false"
       vertical_pattern="false"
       fuse_tolerance="0" />
    <inkscape:path-effect
       fuse_tolerance="0"
       vertical_pattern="false"
       prop_units="false"
       tang_offset="0"
       normal_offset="0"
       spacing="0"
       scale_y_rel="false"
       prop_scale="1"
       copytype="single_stretched"
       pattern="m 205.9257,59.730881 1,0"
       is_visible="true"
       id="path-effect7102-2-8-5-0"
       effect="skeletal" />
    <inkscape:path-effect
       effect="skeletal"
       id="path-effect7722-8-2-4"
       is_visible="true"
       pattern="m 200.92571,59.730891 1,0"
       copytype="single_stretched"
       prop_scale="1"
       scale_y_rel="false"
       spacing="0"
       normal_offset="0"
       tang_offset="0"
       prop_units="false"
       vertical_pattern="false"
       fuse_tolerance="0" />
    <inkscape:path-effect
       fuse_tolerance="0"
       vertical_pattern="false"
       prop_units="false"
       tang_offset="0"
       normal_offset="0"
       spacing="0"
       scale_y_rel="false"
       prop_scale="1"
       copytype="single_stretched"
       pattern="m 195.9257,59.730881 1,0"
       is_visible="true"
       id="path-effect7102-1-75-1"
       effect="skeletal" />
    <inkscape:path-effect
       effect="skeletal"
       id="path-effect7722-1-31-8"
       is_visible="true"
       pattern="m 190.92571,59.730881 1,0"
       copytype="single_stretched"
       prop_scale="1"
       scale_y_rel="false"
       spacing="0"
       normal_offset="0"
       tang_offset="0"
       prop_units="false"
       vertical_pattern="false"
       fuse_tolerance="0" />
    <inkscape:path-effect
       fuse_tolerance="0"
       vertical_pattern="false"
       prop_units="false"
       tang_offset="0"
       normal_offset="0"
       spacing="0"
       scale_y_rel="false"
       prop_scale="1"
       copytype="single_stretched"
       pattern="m 185.9257,59.730881 1,0"
       is_visible="true"
       id="path-effect7102-2-1-8"
       effect="skeletal" />
    <inkscape:path-effect
       effect="skeletal"
       id="path-effect7722-3-9"
       is_visible="true"
       pattern="m 180.92571,59.730891 1,0"
       copytype="single_stretched"
       prop_scale="1"
       scale_y_rel="false"
       spacing="0"
       normal_offset="0"
       tang_offset="0"
       prop_units="false"
       vertical_pattern="false"
       fuse_tolerance="0" />
    <inkscape:path-effect
       fuse_tolerance="0"
       vertical_pattern="false"
       prop_units="false"
       tang_offset="0"
       normal_offset="0"
       spacing="0"
       scale_y_rel="false"
       prop_scale="1"
       copytype="single_stretched"
       pattern="m 175.9257,59.730881 1,0"
       is_visible="true"
       id="path-effect7102-46-7"
       effect="skeletal" />
    <inkscape:path-effect
       effect="skeletal"
       id="path-effect7722-1-3-1-1"
       is_visible="true"
       pattern="m 170.92571,59.730881 1,0"
       copytype="single_stretched"
       prop_scale="1"
       scale_y_rel="false"
       spacing="0"
       normal_offset="0"
       tang_offset="0"
       prop_units="false"
       vertical_pattern="false"
       fuse_tolerance="0" />
    <inkscape:path-effect
       fuse_tolerance="0"
       vertical_pattern="false"
       prop_units="false"
       tang_offset="0"
       normal_offset="0"
       spacing="0"
       scale_y_rel="false"
       prop_scale="1"
       copytype="single_stretched"
       pattern="m 165.9257,59.730881 1,0"
       is_visible="true"
       id="path-effect7102-2-8-2-7"
       effect="skeletal" />
    <inkscape:path-effect
       effect="skeletal"
       id="path-effect7722-8-5-1"
       is_visible="true"
       pattern="m 160.92571,59.730891 1,0"
       copytype="single_stretched"
       prop_scale="1"
       scale_y_rel="false"
       spacing="0"
       normal_offset="0"
       tang_offset="0"
       prop_units="false"
       vertical_pattern="false"
       fuse_tolerance="0" />
    <inkscape:path-effect
       fuse_tolerance="0"
       vertical_pattern="false"
       prop_units="false"
       tang_offset="0"
       normal_offset="0"
       spacing="0"
       scale_y_rel="false"
       prop_scale="1"
       copytype="single_stretched"
       pattern="m 155.9257,59.730881 1,0"
       is_visible="true"
       id="path-effect7102-1-7-5"
       effect="skeletal" />
    <inkscape:path-effect
       effect="skeletal"
       id="path-effect7722-1-1-9"
       is_visible="true"
       pattern="m 150.92571,59.730881 1,0"
       copytype="single_stretched"
       prop_scale="1"
       scale_y_rel="false"
       spacing="0"
       normal_offset="0"
       tang_offset="0"
       prop_units="false"
       vertical_pattern="false"
       fuse_tolerance="0" />
    <inkscape:path-effect
       fuse_tolerance="0"
       vertical_pattern="false"
       prop_units="false"
       tang_offset="0"
       normal_offset="0"
       spacing="0"
       scale_y_rel="false"
       prop_scale="1"
       copytype="single_stretched"
       pattern="m 145.9257,59.730881 1,0"
       is_visible="true"
       id="path-effect7102-2-3-3"
       effect="skeletal" />
    <inkscape:path-effect
       effect="skeletal"
       id="path-effect7722-9-6"
       is_visible="true"
       pattern="m 140.92571,59.730891 1,0"
       copytype="single_stretched"
       prop_scale="1"
       scale_y_rel="false"
       spacing="0"
       normal_offset="0"
       tang_offset="0"
       prop_units="false"
       vertical_pattern="false"
       fuse_tolerance="0" />
    <inkscape:path-effect
       fuse_tolerance="0"
       vertical_pattern="false"
       prop_units="false"
       tang_offset="0"
       normal_offset="0"
       spacing="0"
       scale_y_rel="false"
       prop_scale="1"
       copytype="single_stretched"
       pattern="m 135.9257,59.730881 1,0"
       is_visible="true"
       id="path-effect7102-4-1"
       effect="skeletal" />
    <inkscape:path-effect
       effect="skeletal"
       id="path-effect7722-1-3-7"
       is_visible="true"
       pattern="m 130.92571,59.730881 1,0"
       copytype="single_stretched"
       prop_scale="1"
       scale_y_rel="false"
       spacing="0"
       normal_offset="0"
       tang_offset="0"
       prop_units="false"
       vertical_pattern="false"
       fuse_tolerance="0" />
    <inkscape:path-effect
       fuse_tolerance="0"
       vertical_pattern="false"
       prop_units="false"
       tang_offset="0"
       normal_offset="0"
       spacing="0"
       scale_y_rel="false"
       prop_scale="1"
       copytype="single_stretched"
       pattern="m 125.9257,59.730881 1,0"
       is_visible="true"
       id="path-effect7102-2-8-0"
       effect="skeletal" />
    <inkscape:path-effect
       effect="skeletal"
       id="path-effect7722-8-27"
       is_visible="true"
       pattern="m 120.92571,59.730881 1,0"
       copytype="single_stretched"
       prop_scale="1"
       scale_y_rel="false"
       spacing="0"
       normal_offset="0"
       tang_offset="0"
       prop_units="false"
       vertical_pattern="false"
       fuse_tolerance="0" />
    <inkscape:path-effect
       fuse_tolerance="0"
       vertical_pattern="false"
       prop_units="false"
       tang_offset="0"
       normal_offset="0"
       spacing="0"
       scale_y_rel="false"
       prop_scale="1"
       copytype="single_stretched"
       pattern="m 115.9257,59.730881 1,0"
       is_visible="true"
       id="path-effect7102-1-9"
       effect="skeletal" />
    <inkscape:path-effect
       effect="skeletal"
       id="path-effect7722-1-4"
       is_visible="true"
       pattern="m 110.92571,59.730881 1,0"
       copytype="single_stretched"
       prop_scale="1"
       scale_y_rel="false"
       spacing="0"
       normal_offset="0"
       tang_offset="0"
       prop_units="false"
       vertical_pattern="false"
       fuse_tolerance="0" />
    <inkscape:path-effect
       fuse_tolerance="0"
       vertical_pattern="false"
       prop_units="false"
       tang_offset="0"
       normal_offset="0"
       spacing="0"
       scale_y_rel="false"
       prop_scale="1"
       copytype="single_stretched"
       pattern="m 105.9257,59.730881 1,0"
       is_visible="true"
       id="path-effect7102-2-0"
       effect="skeletal" />
    <inkscape:path-effect
       effect="skeletal"
       id="path-effect7722-4"
       is_visible="true"
       pattern="m 100.92571,59.730881 1,0"
       copytype="single_stretched"
       prop_scale="1"
       scale_y_rel="false"
       spacing="0"
       normal_offset="0"
       tang_offset="0"
       prop_units="false"
       vertical_pattern="false"
       fuse_tolerance="0" />
    <inkscape:path-effect
       fuse_tolerance="0"
       vertical_pattern="false"
       prop_units="false"
       tang_offset="0"
       normal_offset="0"
       spacing="0"
       scale_y_rel="false"
       prop_scale="1"
       copytype="single_stretched"
       pattern="m 95.925698,59.730871 1,0"
       is_visible="true"
       id="path-effect7102-7"
       effect="skeletal" />
    <inkscape:path-effect
       effect="skeletal"
       id="path-effect7722-1-3-1-2-5-0"
       is_visible="true"
       pattern="m 410.92571,59.730896 0.99999,0"
       copytype="single_stretched"
       prop_scale="1"
       scale_y_rel="false"
       spacing="0"
       normal_offset="0"
       tang_offset="0"
       prop_units="false"
       vertical_pattern="false"
       fuse_tolerance="0" />
    <inkscape:path-effect
       fuse_tolerance="0"
       vertical_pattern="false"
       prop_units="false"
       tang_offset="0"
       normal_offset="0"
       spacing="0"
       scale_y_rel="false"
       prop_scale="1"
       copytype="single_stretched"
       pattern="m 405.9257,59.730896 1,0"
       is_visible="true"
       id="path-effect7102-2-8-2-9-3-3"
       effect="skeletal" />
    <inkscape:path-effect
       effect="skeletal"
       id="path-effect7722-8-5-8-3-8"
       is_visible="true"
       pattern="m 400.92571,59.730906 1,0"
       copytype="single_stretched"
       prop_scale="1"
       scale_y_rel="false"
       spacing="0"
       normal_offset="0"
       tang_offset="0"
       prop_units="false"
       vertical_pattern="false"
       fuse_tolerance="0" />
    <inkscape:path-effect
       fuse_tolerance="0"
       vertical_pattern="false"
       prop_units="false"
       tang_offset="0"
       normal_offset="0"
       spacing="0"
       scale_y_rel="false"
       prop_scale="1"
       copytype="single_stretched"
       pattern="m 395.9257,59.730896 1,0"
       is_visible="true"
       id="path-effect7102-1-7-6-0-6"
       effect="skeletal" />
    <inkscape:path-effect
       effect="skeletal"
       id="path-effect7722-1-1-5-5-7"
       is_visible="true"
       pattern="m 390.92571,59.730896 1,0"
       copytype="single_stretched"
       prop_scale="1"
       scale_y_rel="false"
       spacing="0"
       normal_offset="0"
       tang_offset="0"
       prop_units="false"
       vertical_pattern="false"
       fuse_tolerance="0" />
    <inkscape:path-effect
       fuse_tolerance="0"
       vertical_pattern="false"
       prop_units="false"
       tang_offset="0"
       normal_offset="0"
       spacing="0"
       scale_y_rel="false"
       prop_scale="1"
       copytype="single_stretched"
       pattern="m 385.9257,59.730896 1,0"
       is_visible="true"
       id="path-effect7102-2-3-0-2-0"
       effect="skeletal" />
    <inkscape:path-effect
       effect="skeletal"
       id="path-effect7722-9-1-7-4"
       is_visible="true"
       pattern="m 380.92571,59.730906 1,0"
       copytype="single_stretched"
       prop_scale="1"
       scale_y_rel="false"
       spacing="0"
       normal_offset="0"
       tang_offset="0"
       prop_units="false"
       vertical_pattern="false"
       fuse_tolerance="0" />
    <inkscape:path-effect
       fuse_tolerance="0"
       vertical_pattern="false"
       prop_units="false"
       tang_offset="0"
       normal_offset="0"
       spacing="0"
       scale_y_rel="false"
       prop_scale="1"
       copytype="single_stretched"
       pattern="m 375.9257,59.730896 1,0"
       is_visible="true"
       id="path-effect7102-4-5-1-2"
       effect="skeletal" />
    <inkscape:path-effect
       effect="skeletal"
       id="path-effect7722-1-3-12-5-2"
       is_visible="true"
       pattern="m 370.92571,59.730886 1,0"
       copytype="single_stretched"
       prop_scale="1"
       scale_y_rel="false"
       spacing="0"
       normal_offset="0"
       tang_offset="0"
       prop_units="false"
       vertical_pattern="false"
       fuse_tolerance="0" />
    <inkscape:path-effect
       fuse_tolerance="0"
       vertical_pattern="false"
       prop_units="false"
       tang_offset="0"
       normal_offset="0"
       spacing="0"
       scale_y_rel="false"
       prop_scale="1"
       copytype="single_stretched"
       pattern="m 365.9257,59.730886 1,0"
       is_visible="true"
       id="path-effect7102-2-8-5-0-3"
       effect="skeletal" />
    <inkscape:path-effect
       effect="skeletal"
       id="path-effect7722-8-2-4-3"
       is_visible="true"
       pattern="m 360.92571,59.730896 1,0"
       copytype="single_stretched"
       prop_scale="1"
       scale_y_rel="false"
       spacing="0"
       normal_offset="0"
       tang_offset="0"
       prop_units="false"
       vertical_pattern="false"
       fuse_tolerance="0" />
    <inkscape:path-effect
       fuse_tolerance="0"
       vertical_pattern="false"
       prop_units="false"
       tang_offset="0"
       normal_offset="0"
       spacing="0"
       scale_y_rel="false"
       prop_scale="1"
       copytype="single_stretched"
       pattern="m 355.9257,59.730886 1,0"
       is_visible="true"
       id="path-effect7102-1-75-1-6"
       effect="skeletal" />
    <inkscape:path-effect
       effect="skeletal"
       id="path-effect7722-1-31-8-7"
       is_visible="true"
       pattern="m 350.92571,59.730886 1,0"
       copytype="single_stretched"
       prop_scale="1"
       scale_y_rel="false"
       spacing="0"
       normal_offset="0"
       tang_offset="0"
       prop_units="false"
       vertical_pattern="false"
       fuse_tolerance="0" />
    <inkscape:path-effect
       fuse_tolerance="0"
       vertical_pattern="false"
       prop_units="false"
       tang_offset="0"
       normal_offset="0"
       spacing="0"
       scale_y_rel="false"
       prop_scale="1"
       copytype="single_stretched"
       pattern="m 345.9257,59.730886 1,0"
       is_visible="true"
       id="path-effect7102-2-1-8-9"
       effect="skeletal" />
    <inkscape:path-effect
       effect="skeletal"
       id="path-effect7722-3-9-6"
       is_visible="true"
       pattern="m 340.92571,59.730896 1,0"
       copytype="single_stretched"
       prop_scale="1"
       scale_y_rel="false"
       spacing="0"
       normal_offset="0"
       tang_offset="0"
       prop_units="false"
       vertical_pattern="false"
       fuse_tolerance="0" />
    <inkscape:path-effect
       fuse_tolerance="0"
       vertical_pattern="false"
       prop_units="false"
       tang_offset="0"
       normal_offset="0"
       spacing="0"
       scale_y_rel="false"
       prop_scale="1"
       copytype="single_stretched"
       pattern="m 335.9257,59.730886 1,0"
       is_visible="true"
       id="path-effect7102-46-7-4"
       effect="skeletal" />
    <inkscape:path-effect
       effect="skeletal"
       id="path-effect7722-1-3-1-1-6"
       is_visible="true"
       pattern="m 330.92571,59.730886 1,0"
       copytype="single_stretched"
       prop_scale="1"
       scale_y_rel="false"
       spacing="0"
       normal_offset="0"
       tang_offset="0"
       prop_units="false"
       vertical_pattern="false"
       fuse_tolerance="0" />
    <inkscape:path-effect
       fuse_tolerance="0"
       vertical_pattern="false"
       prop_units="false"
       tang_offset="0"
       normal_offset="0"
       spacing="0"
       scale_y_rel="false"
       prop_scale="1"
       copytype="single_stretched"
       pattern="m 325.9257,59.730886 1,0"
       is_visible="true"
       id="path-effect7102-2-8-2-7-3"
       effect="skeletal" />
    <inkscape:path-effect
       effect="skeletal"
       id="path-effect7722-8-5-1-5"
       is_visible="true"
       pattern="m 320.92571,59.730896 1,0"
       copytype="single_stretched"
       prop_scale="1"
       scale_y_rel="false"
       spacing="0"
       normal_offset="0"
       tang_offset="0"
       prop_units="false"
       vertical_pattern="false"
       fuse_tolerance="0" />
    <inkscape:path-effect
       fuse_tolerance="0"
       vertical_pattern="false"
       prop_units="false"
       tang_offset="0"
       normal_offset="0"
       spacing="0"
       scale_y_rel="false"
       prop_scale="1"
       copytype="single_stretched"
       pattern="m 315.9257,59.730886 1,0"
       is_visible="true"
       id="path-effect7102-1-7-5-3"
       effect="skeletal" />
    <inkscape:path-effect
       effect="skeletal"
       id="path-effect7722-1-1-9-1"
       is_visible="true"
       pattern="m 310.92571,59.730886 1,0"
       copytype="single_stretched"
       prop_scale="1"
       scale_y_rel="false"
       spacing="0"
       normal_offset="0"
       tang_offset="0"
       prop_units="false"
       vertical_pattern="false"
       fuse_tolerance="0" />
    <inkscape:path-effect
       fuse_tolerance="0"
       vertical_pattern="false"
       prop_units="false"
       tang_offset="0"
       normal_offset="0"
       spacing="0"
       scale_y_rel="false"
       prop_scale="1"
       copytype="single_stretched"
       pattern="m 305.9257,59.730886 1,0"
       is_visible="true"
       id="path-effect7102-2-3-3-8"
       effect="skeletal" />
    <inkscape:path-effect
       effect="skeletal"
       id="path-effect7722-9-6-0"
       is_visible="true"
       pattern="m 300.92571,59.730896 1,0"
       copytype="single_stretched"
       prop_scale="1"
       scale_y_rel="false"
       spacing="0"
       normal_offset="0"
       tang_offset="0"
       prop_units="false"
       vertical_pattern="false"
       fuse_tolerance="0" />
    <inkscape:path-effect
       fuse_tolerance="0"
       vertical_pattern="false"
       prop_units="false"
       tang_offset="0"
       normal_offset="0"
       spacing="0"
       scale_y_rel="false"
       prop_scale="1"
       copytype="single_stretched"
       pattern="m 295.9257,59.730886 1,0"
       is_visible="true"
       id="path-effect7102-4-1-9"
       effect="skeletal" />
    <inkscape:path-effect
       effect="skeletal"
       id="path-effect7722-1-3-7-5"
       is_visible="true"
       pattern="m 290.92571,59.730886 1,0"
       copytype="single_stretched"
       prop_scale="1"
       scale_y_rel="false"
       spacing="0"
       normal_offset="0"
       tang_offset="0"
       prop_units="false"
       vertical_pattern="false"
       fuse_tolerance="0" />
    <inkscape:path-effect
       fuse_tolerance="0"
       vertical_pattern="false"
       prop_units="false"
       tang_offset="0"
       normal_offset="0"
       spacing="0"
       scale_y_rel="false"
       prop_scale="1"
       copytype="single_stretched"
       pattern="m 285.9257,59.730886 1,0"
       is_visible="true"
       id="path-effect7102-2-8-0-5"
       effect="skeletal" />
    <inkscape:path-effect
       effect="skeletal"
       id="path-effect7722-8-27-2"
       is_visible="true"
       pattern="m 280.92571,59.730886 1,0"
       copytype="single_stretched"
       prop_scale="1"
       scale_y_rel="false"
       spacing="0"
       normal_offset="0"
       tang_offset="0"
       prop_units="false"
       vertical_pattern="false"
       fuse_tolerance="0" />
    <inkscape:path-effect
       fuse_tolerance="0"
       vertical_pattern="false"
       prop_units="false"
       tang_offset="0"
       normal_offset="0"
       spacing="0"
       scale_y_rel="false"
       prop_scale="1"
       copytype="single_stretched"
       pattern="m 275.9257,59.730886 1,0"
       is_visible="true"
       id="path-effect7102-1-9-2"
       effect="skeletal" />
    <inkscape:path-effect
       effect="skeletal"
       id="path-effect7722-1-4-7"
       is_visible="true"
       pattern="m 270.92571,59.730886 1,0"
       copytype="single_stretched"
       prop_scale="1"
       scale_y_rel="false"
       spacing="0"
       normal_offset="0"
       tang_offset="0"
       prop_units="false"
       vertical_pattern="false"
       fuse_tolerance="0" />
    <inkscape:path-effect
       fuse_tolerance="0"
       vertical_pattern="false"
       prop_units="false"
       tang_offset="0"
       normal_offset="0"
       spacing="0"
       scale_y_rel="false"
       prop_scale="1"
       copytype="single_stretched"
       pattern="m 265.9257,59.730886 1,0"
       is_visible="true"
       id="path-effect7102-2-0-1"
       effect="skeletal" />
    <inkscape:path-effect
       effect="skeletal"
       id="path-effect7722-4-4"
       is_visible="true"
       pattern="m 260.92571,59.730886 1,0"
       copytype="single_stretched"
       prop_scale="1"
       scale_y_rel="false"
       spacing="0"
       normal_offset="0"
       tang_offset="0"
       prop_units="false"
       vertical_pattern="false"
       fuse_tolerance="0" />
    <inkscape:path-effect
       fuse_tolerance="0"
       vertical_pattern="false"
       prop_units="false"
       tang_offset="0"
       normal_offset="0"
       spacing="0"
       scale_y_rel="false"
       prop_scale="1"
       copytype="single_stretched"
       pattern="m 255.9257,59.730876 1,0"
       is_visible="true"
       id="path-effect7102-7-9"
       effect="skeletal" />
    <inkscape:path-effect
       effect="skeletal"
       id="path-effect7722-1-3-1-2-6"
       is_visible="true"
       pattern="m 250.92571,59.730886 0.99999,0"
       copytype="single_stretched"
       prop_scale="1"
       scale_y_rel="false"
       spacing="0"
       normal_offset="0"
       tang_offset="0"
       prop_units="false"
       vertical_pattern="false"
       fuse_tolerance="0" />
    <inkscape:path-effect
       fuse_tolerance="0"
       vertical_pattern="false"
       prop_units="false"
       tang_offset="0"
       normal_offset="0"
       spacing="0"
       scale_y_rel="false"
       prop_scale="1"
       copytype="single_stretched"
       pattern="m 245.9257,59.730886 1,0"
       is_visible="true"
       id="path-effect7102-2-8-2-9-2"
       effect="skeletal" />
    <inkscape:path-effect
       effect="skeletal"
       id="path-effect7722-8-5-8-8"
       is_visible="true"
       pattern="m 240.92571,59.730896 1,0"
       copytype="single_stretched"
       prop_scale="1"
       scale_y_rel="false"
       spacing="0"
       normal_offset="0"
       tang_offset="0"
       prop_units="false"
       vertical_pattern="false"
       fuse_tolerance="0" />
    <inkscape:path-effect
       fuse_tolerance="0"
       vertical_pattern="false"
       prop_units="false"
       tang_offset="0"
       normal_offset="0"
       spacing="0"
       scale_y_rel="false"
       prop_scale="1"
       copytype="single_stretched"
       pattern="m 235.9257,59.730886 1,0"
       is_visible="true"
       id="path-effect7102-1-7-6-5"
       effect="skeletal" />
    <inkscape:path-effect
       effect="skeletal"
       id="path-effect7722-1-1-5-4"
       is_visible="true"
       pattern="m 230.92571,59.730886 1,0"
       copytype="single_stretched"
       prop_scale="1"
       scale_y_rel="false"
       spacing="0"
       normal_offset="0"
       tang_offset="0"
       prop_units="false"
       vertical_pattern="false"
       fuse_tolerance="0" />
    <inkscape:path-effect
       fuse_tolerance="0"
       vertical_pattern="false"
       prop_units="false"
       tang_offset="0"
       normal_offset="0"
       spacing="0"
       scale_y_rel="false"
       prop_scale="1"
       copytype="single_stretched"
       pattern="m 225.92569,59.730886 1,0"
       is_visible="true"
       id="path-effect7102-2-3-0-4"
       effect="skeletal" />
    <inkscape:path-effect
       effect="skeletal"
       id="path-effect7722-9-1-8"
       is_visible="true"
       pattern="m 220.9257,59.730896 1,0"
       copytype="single_stretched"
       prop_scale="1"
       scale_y_rel="false"
       spacing="0"
       normal_offset="0"
       tang_offset="0"
       prop_units="false"
       vertical_pattern="false"
       fuse_tolerance="0" />
    <inkscape:path-effect
       fuse_tolerance="0"
       vertical_pattern="false"
       prop_units="false"
       tang_offset="0"
       normal_offset="0"
       spacing="0"
       scale_y_rel="false"
       prop_scale="1"
       copytype="single_stretched"
       pattern="m 215.92569,59.730886 1,0"
       is_visible="true"
       id="path-effect7102-4-5-9"
       effect="skeletal" />
    <inkscape:path-effect
       effect="skeletal"
       id="path-effect7722-1-3-12-7"
       is_visible="true"
       pattern="m 210.9257,59.730876 1,0"
       copytype="single_stretched"
       prop_scale="1"
       scale_y_rel="false"
       spacing="0"
       normal_offset="0"
       tang_offset="0"
       prop_units="false"
       vertical_pattern="false"
       fuse_tolerance="0" />
    <inkscape:path-effect
       fuse_tolerance="0"
       vertical_pattern="false"
       prop_units="false"
       tang_offset="0"
       normal_offset="0"
       spacing="0"
       scale_y_rel="false"
       prop_scale="1"
       copytype="single_stretched"
       pattern="m 205.92569,59.730876 1,0"
       is_visible="true"
       id="path-effect7102-2-8-5-3"
       effect="skeletal" />
    <inkscape:path-effect
       effect="skeletal"
       id="path-effect7722-8-2-5"
       is_visible="true"
       pattern="m 200.9257,59.730886 1,0"
       copytype="single_stretched"
       prop_scale="1"
       scale_y_rel="false"
       spacing="0"
       normal_offset="0"
       tang_offset="0"
       prop_units="false"
       vertical_pattern="false"
       fuse_tolerance="0" />
    <inkscape:path-effect
       fuse_tolerance="0"
       vertical_pattern="false"
       prop_units="false"
       tang_offset="0"
       normal_offset="0"
       spacing="0"
       scale_y_rel="false"
       prop_scale="1"
       copytype="single_stretched"
       pattern="m 195.92569,59.730876 1,0"
       is_visible="true"
       id="path-effect7102-1-75-6"
       effect="skeletal" />
    <inkscape:path-effect
       effect="skeletal"
       id="path-effect7722-1-31-2"
       is_visible="true"
       pattern="m 190.9257,59.730876 1,0"
       copytype="single_stretched"
       prop_scale="1"
       scale_y_rel="false"
       spacing="0"
       normal_offset="0"
       tang_offset="0"
       prop_units="false"
       vertical_pattern="false"
       fuse_tolerance="0" />
    <inkscape:path-effect
       fuse_tolerance="0"
       vertical_pattern="false"
       prop_units="false"
       tang_offset="0"
       normal_offset="0"
       spacing="0"
       scale_y_rel="false"
       prop_scale="1"
       copytype="single_stretched"
       pattern="m 185.92569,59.730876 1,0"
       is_visible="true"
       id="path-effect7102-2-1-1"
       effect="skeletal" />
    <inkscape:path-effect
       effect="skeletal"
       id="path-effect7722-3-0"
       is_visible="true"
       pattern="m 180.9257,59.730886 1,0"
       copytype="single_stretched"
       prop_scale="1"
       scale_y_rel="false"
       spacing="0"
       normal_offset="0"
       tang_offset="0"
       prop_units="false"
       vertical_pattern="false"
       fuse_tolerance="0" />
    <inkscape:path-effect
       fuse_tolerance="0"
       vertical_pattern="false"
       prop_units="false"
       tang_offset="0"
       normal_offset="0"
       spacing="0"
       scale_y_rel="false"
       prop_scale="1"
       copytype="single_stretched"
       pattern="m 175.92569,59.730876 1,0"
       is_visible="true"
       id="path-effect7102-46-0"
       effect="skeletal" />
    <inkscape:path-effect
       effect="skeletal"
       id="path-effect7722-1-3-1-6"
       is_visible="true"
       pattern="m 170.9257,59.730876 1,0"
       copytype="single_stretched"
       prop_scale="1"
       scale_y_rel="false"
       spacing="0"
       normal_offset="0"
       tang_offset="0"
       prop_units="false"
       vertical_pattern="false"
       fuse_tolerance="0" />
    <inkscape:path-effect
       fuse_tolerance="0"
       vertical_pattern="false"
       prop_units="false"
       tang_offset="0"
       normal_offset="0"
       spacing="0"
       scale_y_rel="false"
       prop_scale="1"
       copytype="single_stretched"
       pattern="m 165.92569,59.730876 1,0"
       is_visible="true"
       id="path-effect7102-2-8-2-74"
       effect="skeletal" />
    <inkscape:path-effect
       effect="skeletal"
       id="path-effect7722-8-5-85"
       is_visible="true"
       pattern="m 160.9257,59.730896 1,0"
       copytype="single_stretched"
       prop_scale="1"
       scale_y_rel="false"
       spacing="0"
       normal_offset="0"
       tang_offset="0"
       prop_units="false"
       vertical_pattern="false"
       fuse_tolerance="0" />
    <inkscape:path-effect
       fuse_tolerance="0"
       vertical_pattern="false"
       prop_units="false"
       tang_offset="0"
       normal_offset="0"
       spacing="0"
       scale_y_rel="false"
       prop_scale="1"
       copytype="single_stretched"
       pattern="m 155.92569,59.730876 1,0"
       is_visible="true"
       id="path-effect7102-1-7-4"
       effect="skeletal" />
    <inkscape:path-effect
       effect="skeletal"
       id="path-effect7722-1-1-91"
       is_visible="true"
       pattern="m 150.9257,59.730876 1,0"
       copytype="single_stretched"
       prop_scale="1"
       scale_y_rel="false"
       spacing="0"
       normal_offset="0"
       tang_offset="0"
       prop_units="false"
       vertical_pattern="false"
       fuse_tolerance="0" />
    <inkscape:path-effect
       fuse_tolerance="0"
       vertical_pattern="false"
       prop_units="false"
       tang_offset="0"
       normal_offset="0"
       spacing="0"
       scale_y_rel="false"
       prop_scale="1"
       copytype="single_stretched"
       pattern="m 145.92569,59.730876 1,0"
       is_visible="true"
       id="path-effect7102-2-3-1"
       effect="skeletal" />
    <inkscape:path-effect
       effect="skeletal"
       id="path-effect7722-9-15"
       is_visible="true"
       pattern="m 140.9257,59.730896 1,0"
       copytype="single_stretched"
       prop_scale="1"
       scale_y_rel="false"
       spacing="0"
       normal_offset="0"
       tang_offset="0"
       prop_units="false"
       vertical_pattern="false"
       fuse_tolerance="0" />
    <inkscape:path-effect
       fuse_tolerance="0"
       vertical_pattern="false"
       prop_units="false"
       tang_offset="0"
       normal_offset="0"
       spacing="0"
       scale_y_rel="false"
       prop_scale="1"
       copytype="single_stretched"
       pattern="m 135.92569,59.730876 1,0"
       is_visible="true"
       id="path-effect7102-4-0"
       effect="skeletal" />
    <inkscape:path-effect
       effect="skeletal"
       id="path-effect7722-1-3-4"
       is_visible="true"
       pattern="m 130.9257,59.730876 1,0"
       copytype="single_stretched"
       prop_scale="1"
       scale_y_rel="false"
       spacing="0"
       normal_offset="0"
       tang_offset="0"
       prop_units="false"
       vertical_pattern="false"
       fuse_tolerance="0" />
    <inkscape:path-effect
       fuse_tolerance="0"
       vertical_pattern="false"
       prop_units="false"
       tang_offset="0"
       normal_offset="0"
       spacing="0"
       scale_y_rel="false"
       prop_scale="1"
       copytype="single_stretched"
       pattern="m 125.92569,59.730876 1,0"
       is_visible="true"
       id="path-effect7102-2-8-02"
       effect="skeletal" />
    <inkscape:path-effect
       effect="skeletal"
       id="path-effect7722-8-24"
       is_visible="true"
       pattern="m 120.9257,59.730886 1,0"
       copytype="single_stretched"
       prop_scale="1"
       scale_y_rel="false"
       spacing="0"
       normal_offset="0"
       tang_offset="0"
       prop_units="false"
       vertical_pattern="false"
       fuse_tolerance="0" />
    <inkscape:path-effect
       fuse_tolerance="0"
       vertical_pattern="false"
       prop_units="false"
       tang_offset="0"
       normal_offset="0"
       spacing="0"
       scale_y_rel="false"
       prop_scale="1"
       copytype="single_stretched"
       pattern="m 115.92569,59.730876 1,0"
       is_visible="true"
       id="path-effect7102-1-0"
       effect="skeletal" />
    <inkscape:path-effect
       effect="skeletal"
       id="path-effect7722-1-8"
       is_visible="true"
       pattern="m 110.9257,59.730876 1,0"
       copytype="single_stretched"
       prop_scale="1"
       scale_y_rel="false"
       spacing="0"
       normal_offset="0"
       tang_offset="0"
       prop_units="false"
       vertical_pattern="false"
       fuse_tolerance="0" />
    <inkscape:path-effect
       fuse_tolerance="0"
       vertical_pattern="false"
       prop_units="false"
       tang_offset="0"
       normal_offset="0"
       spacing="0"
       scale_y_rel="false"
       prop_scale="1"
       copytype="single_stretched"
       pattern="m 105.92569,59.730876 1,0"
       is_visible="true"
       id="path-effect7102-2-9"
       effect="skeletal" />
    <inkscape:path-effect
       effect="skeletal"
       id="path-effect7722-46"
       is_visible="true"
       pattern="m 100.9257,59.730876 1,0"
       copytype="single_stretched"
       prop_scale="1"
       scale_y_rel="false"
       spacing="0"
       normal_offset="0"
       tang_offset="0"
       prop_units="false"
       vertical_pattern="false"
       fuse_tolerance="0" />
    <inkscape:path-effect
       fuse_tolerance="0"
       vertical_pattern="false"
       prop_units="false"
       tang_offset="0"
       normal_offset="0"
       spacing="0"
       scale_y_rel="false"
       prop_scale="1"
       copytype="single_stretched"
       pattern="m 95.925692,59.730876 1,0"
       is_visible="true"
       id="path-effect7102-0"
       effect="skeletal" />
  </defs>
  <metadata
     id="metadata7">
    <rdf:RDF>
      <cc:Work
         rdf:about="">
        <dc:format>image/svg+xml</dc:format>
        <dc:type
           rdf:resource="http://purl.org/dc/dcmitype/StillImage" />
        <dc:title />
      </cc:Work>
    </rdf:RDF>
  </metadata>
  <g
     id="layer1"
     inkscape:groupmode="layer"
     inkscape:label="Layer 1"
     transform="translate(-364.72081,-151.54628)">
    <path
       id="path17687"
       style="fill:#009bc0;fill-opacity:1;stroke:none"
       d="m 404.33612,246.14834 c 0,0 1.74174,0.49724 1.74174,0.49724 0,0 0,0 0,0 0,0 0,6.65743 0,6.65743 0,0 0,0 0,0 0,0 -1.74174,-0.49724 -1.74174,-0.49724 0,0 0,-6.65743 0,-6.65743 m -1.02671,-1.52843 c 0,0 1.02671,1.52843 1.02671,1.52843 0,0 0,0 0,0 0,0 0,6.65743 0,6.65743 0,0 0,0 0,0 0,0 -1.02671,-1.52843 -1.02671,-1.52843 0,0 0,-6.65743 0,-6.65743 m -0.8475,-1.65622 c 0,0 0.8475,1.65622 0.8475,1.65622 0,0 0,0 0,0 0,0 0,6.65743 0,6.65743 0,0 0,0 0,0 0,0 -0.8475,-1.65622 -0.8475,-1.65622 0,0 0,-6.65743 0,-6.65743 m -0.84751,-1.65621 c 0,0 0.84751,1.65621 0.84751,1.65621 0,0 0,0 0,0 0,0 0,6.65743 0,6.65743 0,0 0,0 0,0 0,0 -0.84751,-1.65621 -0.84751,-1.65621 0,0 0,-6.65743 0,-6.65743 m -0.8475,-1.65621 c 0,0 0.8475,1.65621 0.8475,1.65621 0,0 0,0 0,0 0,0 0,6.65743 0,6.65743 0,0 0,0 0,0 0,0 -0.8475,-1.65621 -0.8475,-1.65621 0,0 0,-6.65743 0,-6.65743 m -0.8475,-1.65622 c 0,0 0.8475,1.65622 0.8475,1.65622 0,0 0,0 0,0 0,0 0,6.65743 0,6.65743 0,0 0,0 0,0 0,0 -0.8475,-1.65622 -0.8475,-1.65622 0,0 0,-6.65743 0,-6.65743 m -0.8475,-1.65621 c 0,0 0.8475,1.65621 0.8475,1.65621 0,0 0,0 0,0 0,0 0,6.65743 0,6.65743 0,0 0,0 0,0 0,0 -0.8475,-1.65621 -0.8475,-1.65621 0,0 0,-6.65743 0,-6.65743 m -0.84751,-1.65622 c 0,0 0.84751,1.65622 0.84751,1.65622 0,0 0,0 0,0 0,0 0,6.65743 0,6.65743 0,0 0,0 0,0 0,0 -0.84751,-1.65622 -0.84751,-1.65622 0,0 0,-6.65743 0,-6.65743 m -0.8475,-1.65621 c 0,0 0.8475,1.65621 0.8475,1.65621 0,0 0,0 0,0 0,0 0,6.65743 0,6.65743 0,0 0,0 0,0 0,0 -0.8475,-1.65621 -0.8475,-1.65621 0,0 0,-6.65743 0,-6.65743 m -0.8475,-1.65621 c 0,0 0.8475,1.65621 0.8475,1.65621 0,0 0,0 0,0 0,0 0,6.65743 0,6.65743 0,0 0,0 0,0 0,0 -0.8475,-1.65621 -0.8475,-1.65621 0,0 0,-6.65743 0,-6.65743 m -0.8475,-1.65622 c 0,0 0.8475,1.65622 0.8475,1.65622 0,0 0,0 0,0 0,0 0,6.65743 0,6.65743 0,0 0,0 0,0 0,0 -0.8475,-1.65622 -0.8475,-1.65622 0,0 0,-6.65743 0,-6.65743 m -0.84751,-1.65621 c 0,0 0.84751,1.65621 0.84751,1.65621 0,0 0,0 0,0 0,0 0,6.65743 0,6.65743 0,0 0,0 0,0 0,0 -0.84751,-1.65621 -0.84751,-1.65621 0,0 0,-6.65743 0,-6.65743 m -0.8475,-1.65621 c 0,0 0.8475,1.65621 0.8475,1.65621 0,0 0,0 0,0 0,0 0,6.65743 0,6.65743 0,0 0,0 0,0 0,0 -0.8475,-1.65621 -0.8475,-1.65621 0,0 0,-6.65743 0,-6.65743 m -0.8475,-1.65622 c 0,0 0.8475,1.65622 0.8475,1.65622 0,0 0,0 0,0 0,0 0,6.65743 0,6.65743 0,0 0,0 0,0 0,0 -0.8475,-1.65622 -0.8475,-1.65622 0,0 0,-6.65743 0,-6.65743 m -0.8475,-1.65621 c 0,0 0.8475,1.65621 0.8475,1.65621 0,0 0,0 0,0 0,0 0,6.65743 0,6.65743 0,0 0,0 0,0 0,0 -0.8475,-1.65621 -0.8475,-1.65621 0,0 0,-6.65743 0,-6.65743 m -0.84751,-1.65621 c 0,0 0.84751,1.65621 0.84751,1.65621 0,0 0,0 0,0 0,0 0,6.65743 0,6.65743 0,0 0,0 0,0 0,0 -0.84751,-1.65621 -0.84751,-1.65621 0,0 0,-6.65743 0,-6.65743 m -0.8475,-1.65622 c 0,0 0.8475,1.65622 0.8475,1.65622 0,0 0,0 0,0 0,0 0,6.65743 0,6.65743 0,0 0,0 0,0 0,0 -0.8475,-1.65622 -0.8475,-1.65622 0,0 0,-6.65743 0,-6.65743 m -0.8475,-1.65621 c 0,0 0.8475,1.65621 0.8475,1.65621 0,0 0,0 0,0 0,0 0,6.65743 0,6.65743 0,0 0,0 0,0 0,0 -0.8475,-1.65621 -0.8475,-1.65621 0,0 0,-6.65743 0,-6.65743 m -0.8475,-1.65621 c 0,0 0.8475,1.65621 0.8475,1.65621 0,0 0,0 0,0 0,0 0,6.65743 0,6.65743 0,0 0,0 0,0 0,0 -0.8475,-1.65621 -0.8475,-1.65621 0,0 0,-6.65743 0,-6.65743 m -0.8475,-1.65622 c 0,0 0.8475,1.65622 0.8475,1.65622 0,0 0,0 0,0 0,0 0,6.65743 0,6.65743 0,0 0,0 0,0 0,0 -0.8475,-1.65622 -0.8475,-1.65622 0,0 0,-6.65743 0,-6.65743 m -0.84751,-1.65621 c 0,0 0.84751,1.65621 0.84751,1.65621 0,0 0,0 0,0 0,0 0,6.65743 0,6.65743 0,0 0,0 0,0 0,0 -0.84751,-1.65621 -0.84751,-1.65621 0,0 0,-6.65743 0,-6.65743 m -0.8475,-1.65621 c 0,0 0.8475,1.65621 0.8475,1.65621 0,0 0,0 0,0 0,0 0,6.65743 0,6.65743 0,0 0,0 0,0 0,0 -0.8475,-1.65621 -0.8475,-1.65621 0,0 0,-6.65743 0,-6.65743 m -0.8475,-1.65622 c 0,0 0.8475,1.65622 0.8475,1.65622 0,0 0,0 0,0 0,0 0,6.65743 0,6.65743 0,0 0,0 0,0 0,0 -0.8475,-1.65622 -0.8475,-1.65622 0,0 0,-6.65743 0,-6.65743 m -0.8475,-1.65621 c 0,0 0.8475,1.65621 0.8475,1.65621 0,0 0,0 0,0 0,0 0,6.65743 0,6.65743 0,0 0,0 0,0 0,0 -0.8475,-1.65621 -0.8475,-1.65621 0,0 0,-6.65743 0,-6.65743 m -0.84751,-1.65622 c 0,0 0.84751,1.65622 0.84751,1.65622 0,0 0,0 0,0 0,0 0,6.65743 0,6.65743 0,0 0,0 0,0 0,0 -0.84751,-1.65622 -0.84751,-1.65622 0,0 0,-6.65743 0,-6.65743 m -0.8475,-1.65621 c 0,0 0.8475,1.65621 0.8475,1.65621 0,0 0,0 0,0 0,0 0,6.65743 0,6.65743 0,0 0,0 0,0 0,0 -0.8475,-1.65621 -0.8475,-1.65621 0,0 0,-6.65743 0,-6.65743 m -0.8475,-1.65621 c 0,0 0.8475,1.65621 0.8475,1.65621 0,0 0,0 0,0 0,0 0,6.65743 0,6.65743 0,0 0,0 0,0 0,0 -0.8475,-1.65621 -0.8475,-1.65621 0,0 0,-6.65743 0,-6.65743 m -0.8475,-1.65622 c 0,0 0.8475,1.65622 0.8475,1.65622 0,0 0,0 0,0 0,0 0,6.65743 0,6.65743 0,0 0,0 0,0 0,0 -0.8475,-1.65622 -0.8475,-1.65622 0,0 0,-6.65743 0,-6.65743 m -0.84751,-1.65621 c 0,0 0.84751,1.65621 0.84751,1.65621 0,0 0,0 0,0 0,0 0,6.65743 0,6.65743 0,0 0,0 0,0 0,0 -0.84751,-1.65621 -0.84751,-1.65621 0,0 0,-6.65743 0,-6.65743 m -0.8475,-1.65621 c 0,0 0.8475,1.65621 0.8475,1.65621 0,0 0,0 0,0 0,0 0,6.65743 0,6.65743 0,0 0,0 0,0 0,0 -0.8475,-1.65621 -0.8475,-1.65621 0,0 0,-6.65743 0,-6.65743 m -0.8475,-1.65622 c 0,0 0.8475,1.65622 0.8475,1.65622 0,0 0,0 0,0 0,0 0,6.65743 0,6.65743 0,0 0,0 0,0 0,0 -0.8475,-1.65622 -0.8475,-1.65622 0,0 0,-6.65743 0,-6.65743 m -0.8475,-1.65621 c 0,0 0.8475,1.65621 0.8475,1.65621 0,0 0,0 0,0 0,0 0,6.65743 0,6.65743 0,0 0,0 0,0 0,0 -0.8475,-1.65621 -0.8475,-1.65621 0,0 0,-6.65743 0,-6.65743 m -0.84751,-1.65621 c 0,0 0.84751,1.65621 0.84751,1.65621 0,0 0,0 0,0 0,0 0,6.65743 0,6.65743 0,0 0,0 0,0 0,0 -0.84751,-1.65621 -0.84751,-1.65621 0,0 0,-6.65743 0,-6.65743 m -0.8475,-1.65622 c 0,0 0.8475,1.65622 0.8475,1.65622 0,0 0,0 0,0 0,0 0,6.65743 0,6.65743 0,0 0,0 0,0 0,0 -0.8475,-1.65622 -0.8475,-1.65622 0,0 0,-6.65743 0,-6.65743 m -0.8475,-1.65621 c 0,0 0.8475,1.65621 0.8475,1.65621 0,0 0,0 0,0 0,0 0,6.65743 0,6.65743 0,0 0,0 0,0 0,0 -0.8475,-1.65621 -0.8475,-1.65621 0,0 0,-6.65743 0,-6.65743 m -0.8475,-1.65621 c 0,0 0.8475,1.65621 0.8475,1.65621 0,0 0,0 0,0 0,0 0,6.65743 0,6.65743 0,0 0,0 0,0 0,0 -0.8475,-1.65621 -0.8475,-1.65621 0,0 0,-6.65743 0,-6.65743 m -0.8475,-1.65622 c 0,0 0.8475,1.65622 0.8475,1.65622 0,0 0,0 0,0 0,0 0,6.65743 0,6.65743 0,0 0,0 0,0 0,0 -0.8475,-1.65622 -0.8475,-1.65622 0,0 0,-6.65743 0,-6.65743 m -0.84751,-1.65621 c 0,0 0.84751,1.65621 0.84751,1.65621 0,0 0,0 0,0 0,0 0,6.65743 0,6.65743 0,0 0,0 0,0 0,0 -0.84751,-1.65621 -0.84751,-1.65621 0,0 0,-6.65743 0,-6.65743 m -0.74426,-1.69589 c 0,0 0.74426,1.69589 0.74426,1.69589 0,0 0,0 0,0 0,0 0,6.65743 0,6.65743 0,0 0,0 0,0 0,0 -0.74426,-1.69589 -0.74426,-1.69589 0,0 0,-6.65743 0,-6.65743" />
    <path
       id="path17763"
       style="fill:#000000;fill-opacity:1"
       d="m 438.07718,186.1052 c 0,0 0.84349,-1.65827 0.84349,-1.65827 0,0 0,0 0,0 0,0 0,6.65743 0,6.65743 0,0 0,0 0,0 0,0 -0.84349,1.65827 -0.84349,1.65827 0,0 0,-6.65743 0,-6.65743 m -0.84348,1.65826 c 0,0 0.84348,-1.65826 0.84348,-1.65826 0,0 0,0 0,0 0,0 0,6.65743 0,6.65743 0,0 0,0 0,0 0,0 -0.84348,1.65826 -0.84348,1.65826 0,0 0,-6.65743 0,-6.65743 m -0.84349,1.65826 c 0,0 0.84349,-1.65826 0.84349,-1.65826 0,0 0,0 0,0 0,0 0,6.65743 0,6.65743 0,0 0,0 0,0 0,0 -0.84349,1.65826 -0.84349,1.65826 0,0 0,-6.65743 0,-6.65743 m -0.84348,1.65827 c 0,0 0.84348,-1.65827 0.84348,-1.65827 0,0 0,0 0,0 0,0 0,6.65743 0,6.65743 0,0 0,0 0,0 0,0 -0.84348,1.65827 -0.84348,1.65827 0,0 0,-6.65743 0,-6.65743 m -0.84349,1.65826 c 0,0 0.84349,-1.65826 0.84349,-1.65826 0,0 0,0 0,0 0,0 0,6.65743 0,6.65743 0,0 0,0 0,0 0,0 -0.84349,1.65826 -0.84349,1.65826 0,0 0,-6.65743 0,-6.65743 m -0.84348,1.65826 c 0,0 0.84348,-1.65826 0.84348,-1.65826 0,0 0,0 0,0 0,0 0,6.65743 0,6.65743 0,0 0,0 0,0 0,0 -0.84348,1.65826 -0.84348,1.65826 0,0 0,-6.65743 0,-6.65743 m -0.84349,1.65827 c 0,0 0.84349,-1.65827 0.84349,-1.65827 0,0 0,0 0,0 0,0 0,6.65743 0,6.65743 0,0 0,0 0,0 0,0 -0.84349,1.65827 -0.84349,1.65827 0,0 0,-6.65743 0,-6.65743 m -0.84348,1.65826 c 0,0 0.84348,-1.65826 0.84348,-1.65826 0,0 0,0 0,0 0,0 0,6.65743 0,6.65743 0,0 0,0 0,0 0,0 -0.84348,1.65826 -0.84348,1.65826 0,0 0,-6.65743 0,-6.65743 m -0.84349,1.65826 c 0,0 0.84349,-1.65826 0.84349,-1.65826 0,0 0,0 0,0 0,0 0,6.65743 0,6.65743 0,0 0,0 0,0 0,0 -0.84349,1.65826 -0.84349,1.65826 0,0 0,-6.65743 0,-6.65743 m -0.84348,1.65826 c 0,0 0.84348,-1.65826 0.84348,-1.65826 0,0 0,0 0,0 0,0 0,6.65743 0,6.65743 0,0 0,0 0,0 0,0 -0.84348,1.65826 -0.84348,1.65826 0,0 0,-6.65743 0,-6.65743 m -0.84349,1.65827 c 0,0 0.84349,-1.65827 0.84349,-1.65827 0,0 0,0 0,0 0,0 0,6.65743 0,6.65743 0,0 0,0 0,0 0,0 -0.84349,1.65827 -0.84349,1.65827 0,0 0,-6.65743 0,-6.65743 m -0.84349,1.65826 c 0,0 0.84349,-1.65826 0.84349,-1.65826 0,0 0,0 0,0 0,0 0,6.65743 0,6.65743 0,0 0,0 0,0 0,0 -0.84349,1.65826 -0.84349,1.65826 0,0 0,-6.65743 0,-6.65743 m -0.84348,1.65826 c 0,0 0.84348,-1.65826 0.84348,-1.65826 0,0 0,0 0,0 0,0 0,6.65743 0,6.65743 0,0 0,0 0,0 0,0 -0.84348,1.65826 -0.84348,1.65826 0,0 0,-6.65743 0,-6.65743 m -0.84349,1.65827 c 0,0 0.84349,-1.65827 0.84349,-1.65827 0,0 0,0 0,0 0,0 0,6.65743 0,6.65743 0,0 0,0 0,0 0,0 -0.84349,1.65827 -0.84349,1.65827 0,0 0,-6.65743 0,-6.65743 m -0.84348,1.65826 c 0,0 0.84348,-1.65826 0.84348,-1.65826 0,0 0,0 0,0 0,0 0,6.65743 0,6.65743 0,0 0,0 0,0 0,0 -0.84348,1.65826 -0.84348,1.65826 0,0 0,-6.65743 0,-6.65743 m -0.84349,1.65826 c 0,0 0.84349,-1.65826 0.84349,-1.65826 0,0 0,0 0,0 0,0 0,6.65743 0,6.65743 0,0 0,0 0,0 0,0 -0.84349,1.65826 -0.84349,1.65826 0,0 0,-6.65743 0,-6.65743 m -0.84348,1.65827 c 0,0 0.84348,-1.65827 0.84348,-1.65827 0,0 0,0 0,0 0,0 0,6.65743 0,6.65743 0,0 0,0 0,0 0,0 -0.84348,1.65827 -0.84348,1.65827 0,0 0,-6.65743 0,-6.65743 m -0.84349,1.65826 c 0,0 0.84349,-1.65826 0.84349,-1.65826 0,0 0,0 0,0 0,0 0,6.65743 0,6.65743 0,0 0,0 0,0 0,0 -0.84349,1.65826 -0.84349,1.65826 0,0 0,-6.65743 0,-6.65743 m -0.84348,1.65826 c 0,0 0.84348,-1.65826 0.84348,-1.65826 0,0 0,0 0,0 0,0 0,6.65743 0,6.65743 0,0 0,0 0,0 0,0 -0.84348,1.65826 -0.84348,1.65826 0,0 0,-6.65743 0,-6.65743 m -0.84349,1.65827 c 0,0 0.84349,-1.65827 0.84349,-1.65827 0,0 0,0 0,0 0,0 0,6.65743 0,6.65743 0,0 0,0 0,0 0,0 -0.84349,1.65827 -0.84349,1.65827 0,0 0,-6.65743 0,-6.65743 m -0.84348,1.65826 c 0,0 0.84348,-1.65826 0.84348,-1.65826 0,0 0,0 0,0 0,0 0,6.65743 0,6.65743 0,0 0,0 0,0 0,0 -0.84348,1.65826 -0.84348,1.65826 0,0 0,-6.65743 0,-6.65743 m -0.84349,1.65826 c 0,0 0.84349,-1.65826 0.84349,-1.65826 0,0 0,0 0,0 0,0 0,6.65743 0,6.65743 0,0 0,0 0,0 0,0 -0.84349,1.65826 -0.84349,1.65826 0,0 0,-6.65743 0,-6.65743 m -0.84348,1.65826 c 0,0 0.84348,-1.65826 0.84348,-1.65826 0,0 0,0 0,0 0,0 0,6.65743 0,6.65743 0,0 0,0 0,0 0,0 -0.84348,1.65826 -0.84348,1.65826 0,0 0,-6.65743 0,-6.65743 m -0.84349,1.65827 c 0,0 0.84349,-1.65827 0.84349,-1.65827 0,0 0,0 0,0 0,0 0,6.65743 0,6.65743 0,0 0,0 0,0 0,0 -0.84349,1.65827 -0.84349,1.65827 0,0 0,-6.65743 0,-6.65743 m -0.84348,1.65826 c 0,0 0.84348,-1.65826 0.84348,-1.65826 0,0 0,0 0,0 0,0 0,6.65743 0,6.65743 0,0 0,0 0,0 0,0 -0.84348,1.65826 -0.84348,1.65826 0,0 0,-6.65743 0,-6.65743 m -0.84349,1.65826 c 0,0 0.84349,-1.65826 0.84349,-1.65826 0,0 0,0 0,0 0,0 0,6.65743 0,6.65743 0,0 0,0 0,0 0,0 -0.84349,1.65826 -0.84349,1.65826 0,0 0,-6.65743 0,-6.65743 m -0.84348,1.65827 c 0,0 0.84348,-1.65827 0.84348,-1.65827 0,0 0,0 0,0 0,0 0,6.65743 0,6.65743 0,0 0,0 0,0 0,0 -0.84348,1.65827 -0.84348,1.65827 0,0 0,-6.65743 0,-6.65743 m -0.84349,1.65826 c 0,0 0.84349,-1.65826 0.84349,-1.65826 0,0 0,0 0,0 0,0 0,6.65743 0,6.65743 0,0 0,0 0,0 0,0 -0.84349,1.65826 -0.84349,1.65826 0,0 0,-6.65743 0,-6.65743 m -0.84348,1.65826 c 0,0 0.84348,-1.65826 0.84348,-1.65826 0,0 0,0 0,0 0,0 0,6.65743 0,6.65743 0,0 0,0 0,0 0,0 -0.84348,1.65826 -0.84348,1.65826 0,0 0,-6.65743 0,-6.65743 m -0.84349,1.65827 c 0,0 0.84349,-1.65827 0.84349,-1.65827 0,0 0,0 0,0 0,0 0,6.65743 0,6.65743 0,0 0,0 0,0 0,0 -0.84349,1.65827 -0.84349,1.65827 0,0 0,-6.65743 0,-6.65743 m -0.84348,1.65826 c 0,0 0.84348,-1.65826 0.84348,-1.65826 0,0 0,0 0,0 0,0 0,6.65743 0,6.65743 0,0 0,0 0,0 0,0 -0.84348,1.65826 -0.84348,1.65826 0,0 0,-6.65743 0,-6.65743 m -0.84349,1.65826 c 0,0 0.84349,-1.65826 0.84349,-1.65826 0,0 0,0 0,0 0,0 0,6.65743 0,6.65743 0,0 0,0 0,0 0,0 -0.84349,1.65826 -0.84349,1.65826 0,0 0,-6.65743 0,-6.65743 m -0.84348,1.65826 c 0,0 0.84348,-1.65826 0.84348,-1.65826 0,0 0,0 0,0 0,0 0,6.65743 0,6.65743 0,0 0,0 0,0 0,0 -0.84348,1.65826 -0.84348,1.65826 0,0 0,-6.65743 0,-6.65743 m -0.84349,1.65827 c 0,0 0.84349,-1.65827 0.84349,-1.65827 0,0 0,0 0,0 0,0 0,6.65743 0,6.65743 0,0 0,0 0,0 0,0 -0.84349,1.65827 -0.84349,1.65827 0,0 0,-6.65743 0,-6.65743 m -0.84348,1.65826 c 0,0 0.84348,-1.65826 0.84348,-1.65826 0,0 0,0 0,0 0,0 0,6.65743 0,6.65743 0,0 0,0 0,0 0,0 -0.84348,1.65826 -0.84348,1.65826 0,0 0,-6.65743 0,-6.65743 m -0.84349,1.65826 c 0,0 0.84349,-1.65826 0.84349,-1.65826 0,0 0,0 0,0 0,0 0,6.65743 0,6.65743 0,0 0,0 0,0 0,0 -0.84349,1.65826 -0.84349,1.65826 0,0 0,-6.65743 0,-6.65743 m -0.89181,1.6284 c 0,0 0.89181,-1.6284 0.89181,-1.6284 0,0 0,0 0,0 0,0 0,6.65743 0,6.65743 0,0 0,0 0,0 0,0 -0.89181,1.6284 -0.89181,1.6284 0,0 0,-6.65743 0,-6.65743 m -1.58553,0.87278 c 0,0 1.58553,-0.87278 1.58553,-0.87278 0,0 0,0 0,0 0,0 0,6.65743 0,6.65743 0,0 0,0 0,0 0,0 -1.58553,0.87278 -1.58553,0.87278 0,0 0,-6.65743 0,-6.65743" />
    <path
       inkscape:connector-curvature="0"
       id="path17765"
       d="m 438.92067,184.44693 c 0,0 0.48521,-1.76037 0.48521,-1.76037 0,0 0,0 0,0 0,0 0,6.65743 0,6.65743 0,0 0,0 0,0 0,0 -0.48521,1.76037 -0.48521,1.76037 0,0 0,-6.65743 0,-6.65743"
       style="fill:#000000;fill-opacity:1" />
    <path
       inkscape:connector-curvature="0"
       style="fill:#000000;fill-opacity:1"
       d="m 439.40588,182.68656 c 0,0 -0.82276,-1.61365 -0.82276,-1.61365 0,0 0,0 0,0 0,0 0,6.65743 0,6.65743 0,0 0,0 0,0 0,0 0.82276,1.61365 0.82276,1.61365 0,0 0,-6.65743 0,-6.65743"
       id="path17767" />
    <path
       id="path17815"
       style="fill:#000000;fill-opacity:1"
       d="m 407.05649,152.14033 c 0,0 -1.71274,-0.59405 -1.71274,-0.59405 0,0 0,0 0,0 0,0 0,6.65743 0,6.65743 0,0 0,0 0,0 0,0 1.71274,0.59405 1.71274,0.59405 0,0 0,-6.65743 0,-6.65743 m 1.37221,1.2562 c 0,0 -1.37221,-1.2562 -1.37221,-1.2562 0,0 0,0 0,0 0,0 0,6.65743 0,6.65743 0,0 0,0 0,0 0,0 1.37221,1.2562 1.37221,1.2562 0,0 0,-6.65743 0,-6.65743 m 1.37066,1.25802 c 0,0 -1.37066,-1.25802 -1.37066,-1.25802 0,0 0,0 0,0 0,0 0,6.65743 0,6.65743 0,0 0,0 0,0 0,0 1.37066,1.25802 1.37066,1.25802 0,0 0,-6.65743 0,-6.65743 m 1.37065,1.25802 c 0,0 -1.37065,-1.25802 -1.37065,-1.25802 0,0 0,0 0,0 0,0 0,6.65743 0,6.65743 0,0 0,0 0,0 0,0 1.37065,1.25802 1.37065,1.25802 0,0 0,-6.65743 0,-6.65743 m 1.37066,1.25801 c 0,0 -1.37066,-1.25801 -1.37066,-1.25801 0,0 0,0 0,0 0,0 0,6.65743 0,6.65743 0,0 0,0 0,0 0,0 1.37066,1.25801 1.37066,1.25801 0,0 0,-6.65743 0,-6.65743 m 1.37065,1.25802 c 0,0 -1.37065,-1.25802 -1.37065,-1.25802 0,0 0,0 0,0 0,0 0,6.65743 0,6.65743 0,0 0,0 0,0 0,0 1.37065,1.25802 1.37065,1.25802 0,0 0,-6.65743 0,-6.65743 m 1.37066,1.25802 c 0,0 -1.37066,-1.25802 -1.37066,-1.25802 0,0 0,0 0,0 0,0 0,6.65743 0,6.65743 0,0 0,0 0,0 0,0 1.37066,1.25802 1.37066,1.25802 0,0 0,-6.65743 0,-6.65743 m 1.37065,1.25801 c 0,0 -1.37065,-1.25801 -1.37065,-1.25801 0,0 0,0 0,0 0,0 0,6.65743 0,6.65743 0,0 0,0 0,0 0,0 1.37065,1.25801 1.37065,1.25801 0,0 0,-6.65743 0,-6.65743 m 1.37066,1.25802 c 0,0 -1.37066,-1.25802 -1.37066,-1.25802 0,0 0,0 0,0 0,0 0,6.65743 0,6.65743 0,0 0,0 0,0 0,0 1.37066,1.25802 1.37066,1.25802 0,0 0,-6.65743 0,-6.65743 m 1.37065,1.25802 c 0,0 -1.37065,-1.25802 -1.37065,-1.25802 0,0 0,0 0,0 0,0 0,6.65743 0,6.65743 0,0 0,0 0,0 0,0 1.37065,1.25802 1.37065,1.25802 0,0 0,-6.65743 0,-6.65743 m 1.37066,1.25802 c 0,0 -1.37066,-1.25802 -1.37066,-1.25802 0,0 0,0 0,0 0,0 0,6.65743 0,6.65743 0,0 0,0 0,0 0,0 1.37066,1.25802 1.37066,1.25802 0,0 0,-6.65743 0,-6.65743 m 1.37065,1.25801 c 0,0 -1.37065,-1.25801 -1.37065,-1.25801 0,0 0,0 0,0 0,0 0,6.65743 0,6.65743 0,0 0,0 0,0 0,0 1.37065,1.25801 1.37065,1.25801 0,0 0,-6.65743 0,-6.65743 m 1.37066,1.25802 c 0,0 -1.37066,-1.25802 -1.37066,-1.25802 0,0 0,0 0,0 0,0 0,6.65743 0,6.65743 0,0 0,0 0,0 0,0 1.37066,1.25802 1.37066,1.25802 0,0 0,-6.65743 0,-6.65743 m 1.37065,1.25802 c 0,0 -1.37065,-1.25802 -1.37065,-1.25802 0,0 0,0 0,0 0,0 0,6.65743 0,6.65743 0,0 0,0 0,0 0,0 1.37065,1.25802 1.37065,1.25802 0,0 0,-6.65743 0,-6.65743 m 1.37066,1.25802 c 0,0 -1.37066,-1.25802 -1.37066,-1.25802 0,0 0,0 0,0 0,0 0,6.65743 0,6.65743 0,0 0,0 0,0 0,0 1.37066,1.25802 1.37066,1.25802 0,0 0,-6.65743 0,-6.65743 m 1.37065,1.25801 c 0,0 -1.37065,-1.25801 -1.37065,-1.25801 0,0 0,0 0,0 0,0 0,6.65743 0,6.65743 0,0 0,0 0,0 0,0 1.37065,1.25801 1.37065,1.25801 0,0 0,-6.65743 0,-6.65743 m 1.37066,1.25802 c 0,0 -1.37066,-1.25802 -1.37066,-1.25802 0,0 0,0 0,0 0,0 0,6.65743 0,6.65743 0,0 0,0 0,0 0,0 1.37066,1.25802 1.37066,1.25802 0,0 0,-6.65743 0,-6.65743 m 1.37065,1.25802 c 0,0 -1.37065,-1.25802 -1.37065,-1.25802 0,0 0,0 0,0 0,0 0,6.65743 0,6.65743 0,0 0,0 0,0 0,0 1.37065,1.25802 1.37065,1.25802 0,0 0,-6.65743 0,-6.65743 m 1.37066,1.25801 c 0,0 -1.37066,-1.25801 -1.37066,-1.25801 0,0 0,0 0,0 0,0 0,6.65743 0,6.65743 0,0 0,0 0,0 0,0 1.37066,1.25801 1.37066,1.25801 0,0 0,-6.65743 0,-6.65743 m 1.37066,1.25802 c 0,0 -1.37066,-1.25802 -1.37066,-1.25802 0,0 0,0 0,0 0,0 0,6.65743 0,6.65743 0,0 0,0 0,0 0,0 1.37066,1.25802 1.37066,1.25802 0,0 0,-6.65743 0,-6.65743 m 1.37065,1.25802 c 0,0 -1.37065,-1.25802 -1.37065,-1.25802 0,0 0,0 0,0 0,0 0,6.65743 0,6.65743 0,0 0,0 0,0 0,0 1.37065,1.25802 1.37065,1.25802 0,0 0,-6.65743 0,-6.65743 m 1.37066,1.25802 c 0,0 -1.37066,-1.25802 -1.37066,-1.25802 0,0 0,0 0,0 0,0 0,6.65743 0,6.65743 0,0 0,0 0,0 0,0 1.37066,1.25802 1.37066,1.25802 0,0 0,-6.65743 0,-6.65743 m 1.37065,1.25801 c 0,0 -1.37065,-1.25801 -1.37065,-1.25801 0,0 0,0 0,0 0,0 0,6.65743 0,6.65743 0,0 0,0 0,0 0,0 1.37065,1.25801 1.37065,1.25801 0,0 0,-6.65743 0,-6.65743 m 1.37066,1.25802 c 0,0 -1.37066,-1.25802 -1.37066,-1.25802 0,0 0,0 0,0 0,0 0,6.65743 0,6.65743 0,0 0,0 0,0 0,0 1.37066,1.25802 1.37066,1.25802 0,0 0,-6.65743 0,-6.65743 m -66.13602,0.46103 c 0,0 -0.39204,1.76639 -0.39204,1.76639 0,0 0,0 0,0 0,0 0,6.65743 0,6.65743 0,0 0,0 0,0 0,0 0.39204,-1.76639 0.39204,-1.76639 0,0 0,-6.65743 0,-6.65743 m 1.31563,-1.30923 c 0,0 -1.31563,1.30923 -1.31563,1.30923 0,0 0,0 0,0 0,0 0,6.65743 0,6.65743 0,0 0,0 0,0 0,0 1.31563,-1.30923 1.31563,-1.30923 0,0 0,-6.65743 0,-6.65743 m 1.3606,-1.26889 c 0,0 -1.3606,1.26889 -1.3606,1.26889 0,0 0,0 0,0 0,0 0,6.65743 0,6.65743 0,0 0,0 0,0 0,0 1.3606,-1.26889 1.3606,-1.26889 0,0 0,-6.65743 0,-6.65743 m 1.3606,-1.26889 c 0,0 -1.3606,1.26889 -1.3606,1.26889 0,0 0,0 0,0 0,0 0,6.65743 0,6.65743 0,0 0,0 0,0 0,0 1.3606,-1.26889 1.3606,-1.26889 0,0 0,-6.65743 0,-6.65743 m 1.3606,-1.26888 c 0,0 -1.3606,1.26888 -1.3606,1.26888 0,0 0,0 0,0 0,0 0,6.65743 0,6.65743 0,0 0,0 0,0 0,0 1.3606,-1.26888 1.3606,-1.26888 0,0 0,-6.65743 0,-6.65743 m 1.36059,-1.26889 c 0,0 -1.36059,1.26889 -1.36059,1.26889 0,0 0,0 0,0 0,0 0,6.65743 0,6.65743 0,0 0,0 0,0 0,0 1.36059,-1.26889 1.36059,-1.26889 0,0 0,-6.65743 0,-6.65743 m 1.3606,-1.26889 c 0,0 -1.3606,1.26889 -1.3606,1.26889 0,0 0,0 0,0 0,0 0,6.65743 0,6.65743 0,0 0,0 0,0 0,0 1.3606,-1.26889 1.3606,-1.26889 0,0 0,-6.65743 0,-6.65743 m 1.3606,-1.26889 c 0,0 -1.3606,1.26889 -1.3606,1.26889 0,0 0,0 0,0 0,0 0,6.65743 0,6.65743 0,0 0,0 0,0 0,0 1.3606,-1.26889 1.3606,-1.26889 0,0 0,-6.65743 0,-6.65743 m 1.3606,-1.26888 c 0,0 -1.3606,1.26888 -1.3606,1.26888 0,0 0,0 0,0 0,0 0,6.65743 0,6.65743 0,0 0,0 0,0 0,0 1.3606,-1.26888 1.3606,-1.26888 0,0 0,-6.65743 0,-6.65743 m 1.3606,-1.26889 c 0,0 -1.3606,1.26889 -1.3606,1.26889 0,0 0,0 0,0 0,0 0,6.65743 0,6.65743 0,0 0,0 0,0 0,0 1.3606,-1.26889 1.3606,-1.26889 0,0 0,-6.65743 0,-6.65743 m 1.36059,-1.26889 c 0,0 -1.36059,1.26889 -1.36059,1.26889 0,0 0,0 0,0 0,0 0,6.65743 0,6.65743 0,0 0,0 0,0 0,0 1.36059,-1.26889 1.36059,-1.26889 0,0 0,-6.65743 0,-6.65743 m 1.3606,-1.26889 c 0,0 -1.3606,1.26889 -1.3606,1.26889 0,0 0,0 0,0 0,0 0,6.65743 0,6.65743 0,0 0,0 0,0 0,0 1.3606,-1.26889 1.3606,-1.26889 0,0 0,-6.65743 0,-6.65743 m 1.3606,-1.26889 c 0,0 -1.3606,1.26889 -1.3606,1.26889 0,0 0,0 0,0 0,0 0,6.65743 0,6.65743 0,0 0,0 0,0 0,0 1.3606,-1.26889 1.3606,-1.26889 0,0 0,-6.65743 0,-6.65743 m 1.3606,-1.26888 c 0,0 -1.3606,1.26888 -1.3606,1.26888 0,0 0,0 0,0 0,0 0,6.65743 0,6.65743 0,0 0,0 0,0 0,0 1.3606,-1.26888 1.3606,-1.26888 0,0 0,-6.65743 0,-6.65743 m 1.3606,-1.26889 c 0,0 -1.3606,1.26889 -1.3606,1.26889 0,0 0,0 0,0 0,0 0,6.65743 0,6.65743 0,0 0,0 0,0 0,0 1.3606,-1.26889 1.3606,-1.26889 0,0 0,-6.65743 0,-6.65743 m 1.3606,-1.26889 c 0,0 -1.3606,1.26889 -1.3606,1.26889 0,0 0,0 0,0 0,0 0,6.65743 0,6.65743 0,0 0,0 0,0 0,0 1.3606,-1.26889 1.3606,-1.26889 0,0 0,-6.65743 0,-6.65743 m 1.36059,-1.26889 c 0,0 -1.36059,1.26889 -1.36059,1.26889 0,0 0,0 0,0 0,0 0,6.65743 0,6.65743 0,0 0,0 0,0 0,0 1.36059,-1.26889 1.36059,-1.26889 0,0 0,-6.65743 0,-6.65743 m 1.3606,-1.26889 c 0,0 -1.3606,1.26889 -1.3606,1.26889 0,0 0,0 0,0 0,0 0,6.65743 0,6.65743 0,0 0,0 0,0 0,0 1.3606,-1.26889 1.3606,-1.26889 0,0 0,-6.65743 0,-6.65743 m 1.3606,-1.26888 c 0,0 -1.3606,1.26888 -1.3606,1.26888 0,0 0,0 0,0 0,0 0,6.65743 0,6.65743 0,0 0,0 0,0 0,0 1.3606,-1.26888 1.3606,-1.26888 0,0 0,-6.65743 0,-6.65743 m 1.3606,-1.26889 c 0,0 -1.3606,1.26889 -1.3606,1.26889 0,0 0,0 0,0 0,0 0,6.65743 0,6.65743 0,0 0,0 0,0 0,0 1.3606,-1.26889 1.3606,-1.26889 0,0 0,-6.65743 0,-6.65743 m 1.3606,-1.26889 c 0,0 -1.3606,1.26889 -1.3606,1.26889 0,0 0,0 0,0 0,0 0,6.65743 0,6.65743 0,0 0,0 0,0 0,0 1.3606,-1.26889 1.3606,-1.26889 0,0 0,-6.65743 0,-6.65743 m 1.36059,-1.26889 c 0,0 -1.36059,1.26889 -1.36059,1.26889 0,0 0,0 0,0 0,0 0,6.65743 0,6.65743 0,0 0,0 0,0 0,0 1.36059,-1.26889 1.36059,-1.26889 0,0 0,-6.65743 0,-6.65743 m 1.3606,-1.26888 c 0,0 -1.3606,1.26888 -1.3606,1.26888 0,0 0,0 0,0 0,0 0,6.65743 0,6.65743 0,0 0,0 0,0 0,0 1.3606,-1.26888 1.3606,-1.26888 0,0 0,-6.65743 0,-6.65743 m 1.3606,-1.26889 c 0,0 -1.3606,1.26889 -1.3606,1.26889 0,0 0,0 0,0 0,0 0,6.65743 0,6.65743 0,0 0,0 0,0 0,0 1.3606,-1.26889 1.3606,-1.26889 0,0 0,-6.65743 0,-6.65743 m 1.64786,-0.7629 c 0,0 -1.64786,0.7629 -1.64786,0.7629 0,0 0,0 0,0 0,0 0,6.65743 0,6.65743 0,0 0,0 0,0 0,0 1.64786,-0.7629 1.64786,-0.7629 0,0 0,-6.65743 0,-6.65743" />
    <g
       id="g1706"
       transform="translate(28.587811,-5.0420282)"
       style="fill:#009bc0;fill-opacity:1;stroke:none">
      <path
         id="path19707"
         style="fill:#009bc0;fill-opacity:1;stroke:none"
         d="m 336.29871,251.25716 c 0,0 -0.16571,0.27842 -0.16571,0.27842 0,0 0,0 0,0 0,0 0,6.65743 0,6.65743 0,0 0,0 0,0 0,0 0.16571,-0.27842 0.16571,-0.27842 0,0 0,-6.65743 0,-6.65743 m 0.16571,-0.27842 c 0,0 -0.16571,0.27842 -0.16571,0.27842 0,0 0,0 0,0 0,0 0,6.65743 0,6.65743 0,0 0,0 0,0 0,0 0.16571,-0.27842 0.16571,-0.27842 0,0 0,-6.65743 0,-6.65743 m 0.16572,-0.27843 c 0,0 -0.16572,0.27843 -0.16572,0.27843 0,0 0,0 0,0 0,0 0,6.65743 0,6.65743 0,0 0,0 0,0 0,0 0.16572,-0.27843 0.16572,-0.27843 0,0 0,-6.65743 0,-6.65743 m 0.16571,-0.27842 c 0,0 -0.16571,0.27842 -0.16571,0.27842 0,0 0,0 0,0 0,0 0,6.65743 0,6.65743 0,0 0,0 0,0 0,0 0.16571,-0.27842 0.16571,-0.27842 0,0 0,-6.65743 0,-6.65743 m 0.16571,-0.27843 c 0,0 -0.16571,0.27843 -0.16571,0.27843 0,0 0,0 0,0 0,0 0,6.65743 0,6.65743 0,0 0,0 0,0 0,0 0.16571,-0.27843 0.16571,-0.27843 0,0 0,-6.65743 0,-6.65743 m 0.16571,-0.27842 c 0,0 -0.16571,0.27842 -0.16571,0.27842 0,0 0,0 0,0 0,0 0,6.65743 0,6.65743 0,0 0,0 0,0 0,0 0.16571,-0.27842 0.16571,-0.27842 0,0 0,-6.65743 0,-6.65743 m 0.16572,-0.27843 c 0,0 -0.16572,0.27843 -0.16572,0.27843 0,0 0,0 0,0 0,0 0,6.65743 0,6.65743 0,0 0,0 0,0 0,0 0.16572,-0.27843 0.16572,-0.27843 0,0 0,-6.65743 0,-6.65743 m 0.16571,-0.27842 c 0,0 -0.16571,0.27842 -0.16571,0.27842 0,0 0,0 0,0 0,0 0,6.65743 0,6.65743 0,0 0,0 0,0 0,0 0.16571,-0.27842 0.16571,-0.27842 0,0 0,-6.65743 0,-6.65743 m 0.16571,-0.27842 c 0,0 -0.16571,0.27842 -0.16571,0.27842 0,0 0,0 0,0 0,0 0,6.65743 0,6.65743 0,0 0,0 0,0 0,0 0.16571,-0.27842 0.16571,-0.27842 0,0 0,-6.65743 0,-6.65743 m 0.16571,-0.27843 c 0,0 -0.16571,0.27843 -0.16571,0.27843 0,0 0,0 0,0 0,0 0,6.65743 0,6.65743 0,0 0,0 0,0 0,0 0.16571,-0.27843 0.16571,-0.27843 0,0 0,-6.65743 0,-6.65743 m 0.16572,-0.27842 c 0,0 -0.16572,0.27842 -0.16572,0.27842 0,0 0,0 0,0 0,0 0,6.65743 0,6.65743 0,0 0,0 0,0 0,0 0.16572,-0.27842 0.16572,-0.27842 0,0 0,-6.65743 0,-6.65743 m 0.16571,-0.27843 c 0,0 -0.16571,0.27843 -0.16571,0.27843 0,0 0,0 0,0 0,0 0,6.65743 0,6.65743 0,0 0,0 0,0 0,0 0.16571,-0.27843 0.16571,-0.27843 0,0 0,-6.65743 0,-6.65743 m 0.16571,-0.27842 c 0,0 -0.16571,0.27842 -0.16571,0.27842 0,0 0,0 0,0 0,0 0,6.65743 0,6.65743 0,0 0,0 0,0 0,0 0.16571,-0.27842 0.16571,-0.27842 0,0 0,-6.65743 0,-6.65743 m 0.16571,-0.27843 c 0,0 -0.16571,0.27843 -0.16571,0.27843 0,0 0,0 0,0 0,0 0,6.65743 0,6.65743 0,0 0,0 0,0 0,0 0.16571,-0.27843 0.16571,-0.27843 0,0 0,-6.65743 0,-6.65743 m 0.16572,-0.27842 c 0,0 -0.16572,0.27842 -0.16572,0.27842 0,0 0,0 0,0 0,0 0,6.65743 0,6.65743 0,0 0,0 0,0 0,0 0.16572,-0.27842 0.16572,-0.27842 0,0 0,-6.65743 0,-6.65743 m 0.16571,-0.27843 c 0,0 -0.16571,0.27843 -0.16571,0.27843 0,0 0,0 0,0 0,0 0,6.65743 0,6.65743 0,0 0,0 0,0 0,0 0.16571,-0.27843 0.16571,-0.27843 0,0 0,-6.65743 0,-6.65743 m 0.16571,-0.27842 c 0,0 -0.16571,0.27842 -0.16571,0.27842 0,0 0,0 0,0 0,0 0,6.65743 0,6.65743 0,0 0,0 0,0 0,0 0.16571,-0.27842 0.16571,-0.27842 0,0 0,-6.65743 0,-6.65743 m 0.16571,-0.27842 c 0,0 -0.16571,0.27842 -0.16571,0.27842 0,0 0,0 0,0 0,0 0,6.65743 0,6.65743 0,0 0,0 0,0 0,0 0.16571,-0.27842 0.16571,-0.27842 0,0 0,-6.65743 0,-6.65743 m 0.16572,-0.27843 c 0,0 -0.16572,0.27843 -0.16572,0.27843 0,0 0,0 0,0 0,0 0,6.65743 0,6.65743 0,0 0,0 0,0 0,0 0.16572,-0.27843 0.16572,-0.27843 0,0 0,-6.65743 0,-6.65743 m 0.16571,-0.27842 c 0,0 -0.16571,0.27842 -0.16571,0.27842 0,0 0,0 0,0 0,0 0,6.65743 0,6.65743 0,0 0,0 0,0 0,0 0.16571,-0.27842 0.16571,-0.27842 0,0 0,-6.65743 0,-6.65743 m 0.16571,-0.27843 c 0,0 -0.16571,0.27843 -0.16571,0.27843 0,0 0,0 0,0 0,0 0,6.65743 0,6.65743 0,0 0,0 0,0 0,0 0.16571,-0.27843 0.16571,-0.27843 0,0 0,-6.65743 0,-6.65743 m 0.16571,-0.27842 c 0,0 -0.16571,0.27842 -0.16571,0.27842 0,0 0,0 0,0 0,0 0,6.65743 0,6.65743 0,0 0,0 0,0 0,0 0.16571,-0.27842 0.16571,-0.27842 0,0 0,-6.65743 0,-6.65743 m 0.16572,-0.27843 c 0,0 -0.16572,0.27843 -0.16572,0.27843 0,0 0,0 0,0 0,0 0,6.65743 0,6.65743 0,0 0,0 0,0 0,0 0.16572,-0.27843 0.16572,-0.27843 0,0 0,-6.65743 0,-6.65743 m 0.16571,-0.27842 c 0,0 -0.16571,0.27842 -0.16571,0.27842 0,0 0,0 0,0 0,0 0,6.65743 0,6.65743 0,0 0,0 0,0 0,0 0.16571,-0.27842 0.16571,-0.27842 0,0 0,-6.65743 0,-6.65743 m 0.16571,-0.27842 c 0,0 -0.16571,0.27842 -0.16571,0.27842 0,0 0,0 0,0 0,0 0,6.65743 0,6.65743 0,0 0,0 0,0 0,0 0.16571,-0.27842 0.16571,-0.27842 0,0 0,-6.65743 0,-6.65743 m 0.16571,-0.27843 c 0,0 -0.16571,0.27843 -0.16571,0.27843 0,0 0,0 0,0 0,0 0,6.65743 0,6.65743 0,0 0,0 0,0 0,0 0.16571,-0.27843 0.16571,-0.27843 0,0 0,-6.65743 0,-6.65743 m 0.16572,-0.27842 c 0,0 -0.16572,0.27842 -0.16572,0.27842 0,0 0,0 0,0 0,0 0,6.65743 0,6.65743 0,0 0,0 0,0 0,0 0.16572,-0.27842 0.16572,-0.27842 0,0 0,-6.65743 0,-6.65743 m 0.16571,-0.27843 c 0,0 -0.16571,0.27843 -0.16571,0.27843 0,0 0,0 0,0 0,0 0,6.65743 0,6.65743 0,0 0,0 0,0 0,0 0.16571,-0.27843 0.16571,-0.27843 0,0 0,-6.65743 0,-6.65743 m 0.16571,-0.27842 c 0,0 -0.16571,0.27842 -0.16571,0.27842 0,0 0,0 0,0 0,0 0,6.65743 0,6.65743 0,0 0,0 0,0 0,0 0.16571,-0.27842 0.16571,-0.27842 0,0 0,-6.65743 0,-6.65743 m 0.16571,-0.27843 c 0,0 -0.16571,0.27843 -0.16571,0.27843 0,0 0,0 0,0 0,0 0,6.65743 0,6.65743 0,0 0,0 0,0 0,0 0.16571,-0.27843 0.16571,-0.27843 0,0 0,-6.65743 0,-6.65743 m 0.16572,-0.27842 c 0,0 -0.16572,0.27842 -0.16572,0.27842 0,0 0,0 0,0 0,0 0,6.65743 0,6.65743 0,0 0,0 0,0 0,0 0.16572,-0.27842 0.16572,-0.27842 0,0 0,-6.65743 0,-6.65743 m 0.16571,-0.27843 c 0,0 -0.16571,0.27843 -0.16571,0.27843 0,0 0,0 0,0 0,0 0,6.65743 0,6.65743 0,0 0,0 0,0 0,0 0.16571,-0.27843 0.16571,-0.27843 0,0 0,-6.65743 0,-6.65743 m 0.16571,-0.27842 c 0,0 -0.16571,0.27842 -0.16571,0.27842 0,0 0,0 0,0 0,0 0,6.65743 0,6.65743 0,0 0,0 0,0 0,0 0.16571,-0.27842 0.16571,-0.27842 0,0 0,-6.65743 0,-6.65743 m 0.16571,-0.27842 c 0,0 -0.16571,0.27842 -0.16571,0.27842 0,0 0,0 0,0 0,0 0,6.65743 0,6.65743 0,0 0,0 0,0 0,0 0.16571,-0.27842 0.16571,-0.27842 0,0 0,-6.65743 0,-6.65743 m 0.16571,-0.27843 c 0,0 -0.16571,0.27843 -0.16571,0.27843 0,0 0,0 0,0 0,0 0,6.65743 0,6.65743 0,0 0,0 0,0 0,0 0.16571,-0.27843 0.16571,-0.27843 0,0 0,-6.65743 0,-6.65743 m 0.16572,-0.27842 c 0,0 -0.16572,0.27842 -0.16572,0.27842 0,0 0,0 0,0 0,0 0,6.65743 0,6.65743 0,0 0,0 0,0 0,0 0.16572,-0.27842 0.16572,-0.27842 0,0 0,-6.65743 0,-6.65743 m 0.16571,-0.27843 c 0,0 -0.16571,0.27843 -0.16571,0.27843 0,0 0,0 0,0 0,0 0,6.65743 0,6.65743 0,0 0,0 0,0 0,0 0.16571,-0.27843 0.16571,-0.27843 0,0 0,-6.65743 0,-6.65743 m 0.16571,-0.27842 c 0,0 -0.16571,0.27842 -0.16571,0.27842 0,0 0,0 0,0 0,0 0,6.65743 0,6.65743 0,0 0,0 0,0 0,0 0.16571,-0.27842 0.16571,-0.27842 0,0 0,-6.65743 0,-6.65743 m 0.16571,-0.27843 c 0,0 -0.16571,0.27843 -0.16571,0.27843 0,0 0,0 0,0 0,0 0,6.65743 0,6.65743 0,0 0,0 0,0 0,0 0.16571,-0.27843 0.16571,-0.27843 0,0 0,-6.65743 0,-6.65743 m 0.16572,-0.27842 c 0,0 -0.16572,0.27842 -0.16572,0.27842 0,0 0,0 0,0 0,0 0,6.65743 0,6.65743 0,0 0,0 0,0 0,0 0.16572,-0.27842 0.16572,-0.27842 0,0 0,-6.65743 0,-6.65743 m 0.16571,-0.27842 c 0,0 -0.16571,0.27842 -0.16571,0.27842 0,0 0,0 0,0 0,0 0,6.65743 0,6.65743 0,0 0,0 0,0 0,0 0.16571,-0.27842 0.16571,-0.27842 0,0 0,-6.65743 0,-6.65743 m 0.16571,-0.27843 c 0,0 -0.16571,0.27843 -0.16571,0.27843 0,0 0,0 0,0 0,0 0,6.65743 0,6.65743 0,0 0,0 0,0 0,0 0.16571,-0.27843 0.16571,-0.27843 0,0 0,-6.65743 0,-6.65743 m 0.16571,-0.27842 c 0,0 -0.16571,0.27842 -0.16571,0.27842 0,0 0,0 0,0 0,0 0,6.65743 0,6.65743 0,0 0,0 0,0 0,0 0.16571,-0.27842 0.16571,-0.27842 0,0 0,-6.65743 0,-6.65743 m 0.16572,-0.27843 c 0,0 -0.16572,0.27843 -0.16572,0.27843 0,0 0,0 0,0 0,0 0,6.65743 0,6.65743 0,0 0,0 0,0 0,0 0.16572,-0.27843 0.16572,-0.27843 0,0 0,-6.65743 0,-6.65743 m 0.16571,-0.27842 c 0,0 -0.16571,0.27842 -0.16571,0.27842 0,0 0,0 0,0 0,0 0,6.65743 0,6.65743 0,0 0,0 0,0 0,0 0.16571,-0.27842 0.16571,-0.27842 0,0 0,-6.65743 0,-6.65743 m 0.16571,-0.27843 c 0,0 -0.16571,0.27843 -0.16571,0.27843 0,0 0,0 0,0 0,0 0,6.65743 0,6.65743 0,0 0,0 0,0 0,0 0.16571,-0.27843 0.16571,-0.27843 0,0 0,-6.65743 0,-6.65743 m 0.16571,-0.27842 c 0,0 -0.16571,0.27842 -0.16571,0.27842 0,0 0,0 0,0 0,0 0,6.65743 0,6.65743 0,0 0,0 0,0 0,0 0.16571,-0.27842 0.16571,-0.27842 0,0 0,-6.65743 0,-6.65743 m 0.16572,-0.27843 c 0,0 -0.16572,0.27843 -0.16572,0.27843 0,0 0,0 0,0 0,0 0,6.65743 0,6.65743 0,0 0,0 0,0 0,0 0.16572,-0.27843 0.16572,-0.27843 0,0 0,-6.65743 0,-6.65743 m 0.16571,-0.27842 c 0,0 -0.16571,0.27842 -0.16571,0.27842 0,0 0,0 0,0 0,0 0,6.65743 0,6.65743 0,0 0,0 0,0 0,0 0.16571,-0.27842 0.16571,-0.27842 0,0 0,-6.65743 0,-6.65743 m 0.16571,-0.27842 c 0,0 -0.16571,0.27842 -0.16571,0.27842 0,0 0,0 0,0 0,0 0,6.65743 0,6.65743 0,0 0,0 0,0 0,0 0.16571,-0.27842 0.16571,-0.27842 0,0 0,-6.65743 0,-6.65743 m 0.16571,-0.27843 c 0,0 -0.16571,0.27843 -0.16571,0.27843 0,0 0,0 0,0 0,0 0,6.65743 0,6.65743 0,0 0,0 0,0 0,0 0.16571,-0.27843 0.16571,-0.27843 0,0 0,-6.65743 0,-6.65743 m 0.16572,-0.27842 c 0,0 -0.16572,0.27842 -0.16572,0.27842 0,0 0,0 0,0 0,0 0,6.65743 0,6.65743 0,0 0,0 0,0 0,0 0.16572,-0.27842 0.16572,-0.27842 0,0 0,-6.65743 0,-6.65743 m 0.16571,-0.27843 c 0,0 -0.16571,0.27843 -0.16571,0.27843 0,0 0,0 0,0 0,0 0,6.65743 0,6.65743 0,0 0,0 0,0 0,0 0.16571,-0.27843 0.16571,-0.27843 0,0 0,-6.65743 0,-6.65743 m 0.16571,-0.27842 c 0,0 -0.16571,0.27842 -0.16571,0.27842 0,0 0,0 0,0 0,0 0,6.65743 0,6.65743 0,0 0,0 0,0 0,0 0.16571,-0.27842 0.16571,-0.27842 0,0 0,-6.65743 0,-6.65743 m 0.16571,-0.27843 c 0,0 -0.16571,0.27843 -0.16571,0.27843 0,0 0,0 0,0 0,0 0,6.65743 0,6.65743 0,0 0,0 0,0 0,0 0.16571,-0.27843 0.16571,-0.27843 0,0 0,-6.65743 0,-6.65743 m 0.16572,-0.27842 c 0,0 -0.16572,0.27842 -0.16572,0.27842 0,0 0,0 0,0 0,0 0,6.65743 0,6.65743 0,0 0,0 0,0 0,0 0.16572,-0.27842 0.16572,-0.27842 0,0 0,-6.65743 0,-6.65743 m 0.16571,-0.27842 c 0,0 -0.16571,0.27842 -0.16571,0.27842 0,0 0,0 0,0 0,0 0,6.65743 0,6.65743 0,0 0,0 0,0 0,0 0.16571,-0.27842 0.16571,-0.27842 0,0 0,-6.65743 0,-6.65743 m 0.16571,-0.27843 c 0,0 -0.16571,0.27843 -0.16571,0.27843 0,0 0,0 0,0 0,0 0,6.65743 0,6.65743 0,0 0,0 0,0 0,0 0.16571,-0.27843 0.16571,-0.27843 0,0 0,-6.65743 0,-6.65743 m 0.16571,-0.27842 c 0,0 -0.16571,0.27842 -0.16571,0.27842 0,0 0,0 0,0 0,0 0,6.65743 0,6.65743 0,0 0,0 0,0 0,0 0.16571,-0.27842 0.16571,-0.27842 0,0 0,-6.65743 0,-6.65743 m 0.16572,-0.27843 c 0,0 -0.16572,0.27843 -0.16572,0.27843 0,0 0,0 0,0 0,0 0,6.65743 0,6.65743 0,0 0,0 0,0 0,0 0.16572,-0.27843 0.16572,-0.27843 0,0 0,-6.65743 0,-6.65743 m 0.16571,-0.27842 c 0,0 -0.16571,0.27842 -0.16571,0.27842 0,0 0,0 0,0 0,0 0,6.65743 0,6.65743 0,0 0,0 0,0 0,0 0.16571,-0.27842 0.16571,-0.27842 0,0 0,-6.65743 0,-6.65743 m 0.16571,-0.27843 c 0,0 -0.16571,0.27843 -0.16571,0.27843 0,0 0,0 0,0 0,0 0,6.65743 0,6.65743 0,0 0,0 0,0 0,0 0.16571,-0.27843 0.16571,-0.27843 0,0 0,-6.65743 0,-6.65743 m 0.16571,-0.27842 c 0,0 -0.16571,0.27842 -0.16571,0.27842 0,0 0,0 0,0 0,0 0,6.65743 0,6.65743 0,0 0,0 0,0 0,0 0.16571,-0.27842 0.16571,-0.27842 0,0 0,-6.65743 0,-6.65743 m 0.16571,-0.27843 c 0,0 -0.16571,0.27843 -0.16571,0.27843 0,0 0,0 0,0 0,0 0,6.65743 0,6.65743 0,0 0,0 0,0 0,0 0.16571,-0.27843 0.16571,-0.27843 0,0 0,-6.65743 0,-6.65743 m 0.16572,-0.27842 c 0,0 -0.16572,0.27842 -0.16572,0.27842 0,0 0,0 0,0 0,0 0,6.65743 0,6.65743 0,0 0,0 0,0 0,0 0.16572,-0.27842 0.16572,-0.27842 0,0 0,-6.65743 0,-6.65743 m 0.16571,-0.27842 c 0,0 -0.16571,0.27842 -0.16571,0.27842 0,0 0,0 0,0 0,0 0,6.65743 0,6.65743 0,0 0,0 0,0 0,0 0.16571,-0.27842 0.16571,-0.27842 0,0 0,-6.65743 0,-6.65743 m 0.16571,-0.27843 c 0,0 -0.16571,0.27843 -0.16571,0.27843 0,0 0,0 0,0 0,0 0,6.65743 0,6.65743 0,0 0,0 0,0 0,0 0.16571,-0.27843 0.16571,-0.27843 0,0 0,-6.65743 0,-6.65743 m 0.16571,-0.27842 c 0,0 -0.16571,0.27842 -0.16571,0.27842 0,0 0,0 0,0 0,0 0,6.65743 0,6.65743 0,0 0,0 0,0 0,0 0.16571,-0.27842 0.16571,-0.27842 0,0 0,-6.65743 0,-6.65743 m 0.16572,-0.27843 c 0,0 -0.16572,0.27843 -0.16572,0.27843 0,0 0,0 0,0 0,0 0,6.65743 0,6.65743 0,0 0,0 0,0 0,0 0.16572,-0.27843 0.16572,-0.27843 0,0 0,-6.65743 0,-6.65743 m 0.16571,-0.27842 c 0,0 -0.16571,0.27842 -0.16571,0.27842 0,0 0,0 0,0 0,0 0,6.65743 0,6.65743 0,0 0,0 0,0 0,0 0.16571,-0.27842 0.16571,-0.27842 0,0 0,-6.65743 0,-6.65743 m 0.16571,-0.27843 c 0,0 -0.16571,0.27843 -0.16571,0.27843 0,0 0,0 0,0 0,0 0,6.65743 0,6.65743 0,0 0,0 0,0 0,0 0.16571,-0.27843 0.16571,-0.27843 0,0 0,-6.65743 0,-6.65743 m 0.16571,-0.27842 c 0,0 -0.16571,0.27842 -0.16571,0.27842 0,0 0,0 0,0 0,0 0,6.65743 0,6.65743 0,0 0,0 0,0 0,0 0.16571,-0.27842 0.16571,-0.27842 0,0 0,-6.65743 0,-6.65743 m 0.16572,-0.27842 c 0,0 -0.16572,0.27842 -0.16572,0.27842 0,0 0,0 0,0 0,0 0,6.65743 0,6.65743 0,0 0,0 0,0 0,0 0.16572,-0.27842 0.16572,-0.27842 0,0 0,-6.65743 0,-6.65743 m 0.16571,-0.27843 c 0,0 -0.16571,0.27843 -0.16571,0.27843 0,0 0,0 0,0 0,0 0,6.65743 0,6.65743 0,0 0,0 0,0 0,0 0.16571,-0.27843 0.16571,-0.27843 0,0 0,-6.65743 0,-6.65743 m 0.16571,-0.27842 c 0,0 -0.16571,0.27842 -0.16571,0.27842 0,0 0,0 0,0 0,0 0,6.65743 0,6.65743 0,0 0,0 0,0 0,0 0.16571,-0.27842 0.16571,-0.27842 0,0 0,-6.65743 0,-6.65743 m 0.16571,-0.27843 c 0,0 -0.16571,0.27843 -0.16571,0.27843 0,0 0,0 0,0 0,0 0,6.65743 0,6.65743 0,0 0,0 0,0 0,0 0.16571,-0.27843 0.16571,-0.27843 0,0 0,-6.65743 0,-6.65743 m 0.16572,-0.27842 c 0,0 -0.16572,0.27842 -0.16572,0.27842 0,0 0,0 0,0 0,0 0,6.65743 0,6.65743 0,0 0,0 0,0 0,0 0.16572,-0.27842 0.16572,-0.27842 0,0 0,-6.65743 0,-6.65743 m 0.16571,-0.27843 c 0,0 -0.16571,0.27843 -0.16571,0.27843 0,0 0,0 0,0 0,0 0,6.65743 0,6.65743 0,0 0,0 0,0 0,0 0.16571,-0.27843 0.16571,-0.27843 0,0 0,-6.65743 0,-6.65743 m 0.16571,-0.27842 c 0,0 -0.16571,0.27842 -0.16571,0.27842 0,0 0,0 0,0 0,0 0,6.65743 0,6.65743 0,0 0,0 0,0 0,0 0.16571,-0.27842 0.16571,-0.27842 0,0 0,-6.65743 0,-6.65743 m 0.16571,-0.27843 c 0,0 -0.16571,0.27843 -0.16571,0.27843 0,0 0,0 0,0 0,0 0,6.65743 0,6.65743 0,0 0,0 0,0 0,0 0.16571,-0.27843 0.16571,-0.27843 0,0 0,-6.65743 0,-6.65743 m 0.16572,-0.27842 c 0,0 -0.16572,0.27842 -0.16572,0.27842 0,0 0,0 0,0 0,0 0,6.65743 0,6.65743 0,0 0,0 0,0 0,0 0.16572,-0.27842 0.16572,-0.27842 0,0 0,-6.65743 0,-6.65743 m 0.16571,-0.27842 c 0,0 -0.16571,0.27842 -0.16571,0.27842 0,0 0,0 0,0 0,0 0,6.65743 0,6.65743 0,0 0,0 0,0 0,0 0.16571,-0.27842 0.16571,-0.27842 0,0 0,-6.65743 0,-6.65743 m 0.16571,-0.27843 c 0,0 -0.16571,0.27843 -0.16571,0.27843 0,0 0,0 0,0 0,0 0,6.65743 0,6.65743 0,0 0,0 0,0 0,0 0.16571,-0.27843 0.16571,-0.27843 0,0 0,-6.65743 0,-6.65743 m 0.16571,-0.27842 c 0,0 -0.16571,0.27842 -0.16571,0.27842 0,0 0,0 0,0 0,0 0,6.65743 0,6.65743 0,0 0,0 0,0 0,0 0.16571,-0.27842 0.16571,-0.27842 0,0 0,-6.65743 0,-6.65743 m 0.16572,-0.27843 c 0,0 -0.16572,0.27843 -0.16572,0.27843 0,0 0,0 0,0 0,0 0,6.65743 0,6.65743 0,0 0,0 0,0 0,0 0.16572,-0.27843 0.16572,-0.27843 0,0 0,-6.65743 0,-6.65743 m 0.16571,-0.27842 c 0,0 -0.16571,0.27842 -0.16571,0.27842 0,0 0,0 0,0 0,0 0,6.65743 0,6.65743 0,0 0,0 0,0 0,0 0.16571,-0.27842 0.16571,-0.27842 0,0 0,-6.65743 0,-6.65743 m 0.16571,-0.27843 c 0,0 -0.16571,0.27843 -0.16571,0.27843 0,0 0,0 0,0 0,0 0,6.65743 0,6.65743 0,0 0,0 0,0 0,0 0.16571,-0.27843 0.16571,-0.27843 0,0 0,-6.65743 0,-6.65743 m 0.16571,-0.27842 c 0,0 -0.16571,0.27842 -0.16571,0.27842 0,0 0,0 0,0 0,0 0,6.65743 0,6.65743 0,0 0,0 0,0 0,0 0.16571,-0.27842 0.16571,-0.27842 0,0 0,-6.65743 0,-6.65743 m 0.16572,-0.27842 c 0,0 -0.16572,0.27842 -0.16572,0.27842 0,0 0,0 0,0 0,0 0,6.65743 0,6.65743 0,0 0,0 0,0 0,0 0.16572,-0.27842 0.16572,-0.27842 0,0 0,-6.65743 0,-6.65743 m 0.16571,-0.27843 c 0,0 -0.16571,0.27843 -0.16571,0.27843 0,0 0,0 0,0 0,0 0,6.65743 0,6.65743 0,0 0,0 0,0 0,0 0.16571,-0.27843 0.16571,-0.27843 0,0 0,-6.65743 0,-6.65743 m 0.16571,-0.27842 c 0,0 -0.16571,0.27842 -0.16571,0.27842 0,0 0,0 0,0 0,0 0,6.65743 0,6.65743 0,0 0,0 0,0 0,0 0.16571,-0.27842 0.16571,-0.27842 0,0 0,-6.65743 0,-6.65743 m 0.16571,-0.27843 c 0,0 -0.16571,0.27843 -0.16571,0.27843 0,0 0,0 0,0 0,0 0,6.65743 0,6.65743 0,0 0,0 0,0 0,0 0.16571,-0.27843 0.16571,-0.27843 0,0 0,-6.65743 0,-6.65743 m 0.16572,-0.27842 c 0,0 -0.16572,0.27842 -0.16572,0.27842 0,0 0,0 0,0 0,0 0,6.65743 0,6.65743 0,0 0,0 0,0 0,0 0.16572,-0.27842 0.16572,-0.27842 0,0 0,-6.65743 0,-6.65743 m 0.16571,-0.27843 c 0,0 -0.16571,0.27843 -0.16571,0.27843 0,0 0,0 0,0 0,0 0,6.65743 0,6.65743 0,0 0,0 0,0 0,0 0.16571,-0.27843 0.16571,-0.27843 0,0 0,-6.65743 0,-6.65743 m 0.16571,-0.27842 c 0,0 -0.16571,0.27842 -0.16571,0.27842 0,0 0,0 0,0 0,0 0,6.65743 0,6.65743 0,0 0,0 0,0 0,0 0.16571,-0.27842 0.16571,-0.27842 0,0 0,-6.65743 0,-6.65743 m 0.16571,-0.27843 c 0,0 -0.16571,0.27843 -0.16571,0.27843 0,0 0,0 0,0 0,0 0,6.65743 0,6.65743 0,0 0,0 0,0 0,0 0.16571,-0.27843 0.16571,-0.27843 0,0 0,-6.65743 0,-6.65743 m 0.16571,-0.27842 c 0,0 -0.16571,0.27842 -0.16571,0.27842 0,0 0,0 0,0 0,0 0,6.65743 0,6.65743 0,0 0,0 0,0 0,0 0.16571,-0.27842 0.16571,-0.27842 0,0 0,-6.65743 0,-6.65743 m 0.16572,-0.27842 c 0,0 -0.16572,0.27842 -0.16572,0.27842 0,0 0,0 0,0 0,0 0,6.65743 0,6.65743 0,0 0,0 0,0 0,0 0.16572,-0.27842 0.16572,-0.27842 0,0 0,-6.65743 0,-6.65743 m 0.16571,-0.27843 c 0,0 -0.16571,0.27843 -0.16571,0.27843 0,0 0,0 0,0 0,0 0,6.65743 0,6.65743 0,0 0,0 0,0 0,0 0.16571,-0.27843 0.16571,-0.27843 0,0 0,-6.65743 0,-6.65743 m 0.16571,-0.27842 c 0,0 -0.16571,0.27842 -0.16571,0.27842 0,0 0,0 0,0 0,0 0,6.65743 0,6.65743 0,0 0,0 0,0 0,0 0.16571,-0.27842 0.16571,-0.27842 0,0 0,-6.65743 0,-6.65743 m 0.16571,-0.27843 c 0,0 -0.16571,0.27843 -0.16571,0.27843 0,0 0,0 0,0 0,0 0,6.65743 0,6.65743 0,0 0,0 0,0 0,0 0.16571,-0.27843 0.16571,-0.27843 0,0 0,-6.65743 0,-6.65743 m 0.16572,-0.27842 c 0,0 -0.16572,0.27842 -0.16572,0.27842 0,0 0,0 0,0 0,0 0,6.65743 0,6.65743 0,0 0,0 0,0 0,0 0.16572,-0.27842 0.16572,-0.27842 0,0 0,-6.65743 0,-6.65743 m 0.16571,-0.27843 c 0,0 -0.16571,0.27843 -0.16571,0.27843 0,0 0,0 0,0 0,0 0,6.65743 0,6.65743 0,0 0,0 0,0 0,0 0.16571,-0.27843 0.16571,-0.27843 0,0 0,-6.65743 0,-6.65743 m 0.16571,-0.27842 c 0,0 -0.16571,0.27842 -0.16571,0.27842 0,0 0,0 0,0 0,0 0,6.65743 0,6.65743 0,0 0,0 0,0 0,0 0.16571,-0.27842 0.16571,-0.27842 0,0 0,-6.65743 0,-6.65743 m 0.16571,-0.27842 c 0,0 -0.16571,0.27842 -0.16571,0.27842 0,0 0,0 0,0 0,0 0,6.65743 0,6.65743 0,0 0,0 0,0 0,0 0.16571,-0.27842 0.16571,-0.27842 0,0 0,-6.65743 0,-6.65743 m 0.16572,-0.27843 c 0,0 -0.16572,0.27843 -0.16572,0.27843 0,0 0,0 0,0 0,0 0,6.65743 0,6.65743 0,0 0,0 0,0 0,0 0.16572,-0.27843 0.16572,-0.27843 0,0 0,-6.65743 0,-6.65743 m 0.16571,-0.27842 c 0,0 -0.16571,0.27842 -0.16571,0.27842 0,0 0,0 0,0 0,0 0,6.65743 0,6.65743 0,0 0,0 0,0 0,0 0.16571,-0.27842 0.16571,-0.27842 0,0 0,-6.65743 0,-6.65743 m 0.16571,-0.27843 c 0,0 -0.16571,0.27843 -0.16571,0.27843 0,0 0,0 0,0 0,0 0,6.65743 0,6.65743 0,0 0,0 0,0 0,0 0.16571,-0.27843 0.16571,-0.27843 0,0 0,-6.65743 0,-6.65743 m 0.16571,-0.27842 c 0,0 -0.16571,0.27842 -0.16571,0.27842 0,0 0,0 0,0 0,0 0,6.65743 0,6.65743 0,0 0,0 0,0 0,0 0.16571,-0.27842 0.16571,-0.27842 0,0 0,-6.65743 0,-6.65743 m 0.16572,-0.27843 c 0,0 -0.16572,0.27843 -0.16572,0.27843 0,0 0,0 0,0 0,0 0,6.65743 0,6.65743 0,0 0,0 0,0 0,0 0.16572,-0.27843 0.16572,-0.27843 0,0 0,-6.65743 0,-6.65743 m 0.16571,-0.27842 c 0,0 -0.16571,0.27842 -0.16571,0.27842 0,0 0,0 0,0 0,0 0,6.65743 0,6.65743 0,0 0,0 0,0 0,0 0.16571,-0.27842 0.16571,-0.27842 0,0 0,-6.65743 0,-6.65743 m 0.16571,-0.27843 c 0,0 -0.16571,0.27843 -0.16571,0.27843 0,0 0,0 0,0 0,0 0,6.65743 0,6.65743 0,0 0,0 0,0 0,0 0.16571,-0.27843 0.16571,-0.27843 0,0 0,-6.65743 0,-6.65743 m 0.16571,-0.27842 c 0,0 -0.16571,0.27842 -0.16571,0.27842 0,0 0,0 0,0 0,0 0,6.65743 0,6.65743 0,0 0,0 0,0 0,0 0.16571,-0.27842 0.16571,-0.27842 0,0 0,-6.65743 0,-6.65743 m 0.16572,-0.27842 c 0,0 -0.16572,0.27842 -0.16572,0.27842 0,0 0,0 0,0 0,0 0,6.65743 0,6.65743 0,0 0,0 0,0 0,0 0.16572,-0.27842 0.16572,-0.27842 0,0 0,-6.65743 0,-6.65743 m 0.16571,-0.27843 c 0,0 -0.16571,0.27843 -0.16571,0.27843 0,0 0,0 0,0 0,0 0,6.65743 0,6.65743 0,0 0,0 0,0 0,0 0.16571,-0.27843 0.16571,-0.27843 0,0 0,-6.65743 0,-6.65743 m 0.16571,-0.27842 c 0,0 -0.16571,0.27842 -0.16571,0.27842 0,0 0,0 0,0 0,0 0,6.65743 0,6.65743 0,0 0,0 0,0 0,0 0.16571,-0.27842 0.16571,-0.27842 0,0 0,-6.65743 0,-6.65743 m 0.16571,-0.27843 c 0,0 -0.16571,0.27843 -0.16571,0.27843 0,0 0,0 0,0 0,0 0,6.65743 0,6.65743 0,0 0,0 0,0 0,0 0.16571,-0.27843 0.16571,-0.27843 0,0 0,-6.65743 0,-6.65743 m 0.16572,-0.27842 c 0,0 -0.16572,0.27842 -0.16572,0.27842 0,0 0,0 0,0 0,0 0,6.65743 0,6.65743 0,0 0,0 0,0 0,0 0.16572,-0.27842 0.16572,-0.27842 0,0 0,-6.65743 0,-6.65743 m 0.16571,-0.27843 c 0,0 -0.16571,0.27843 -0.16571,0.27843 0,0 0,0 0,0 0,0 0,6.65743 0,6.65743 0,0 0,0 0,0 0,0 0.16571,-0.27843 0.16571,-0.27843 0,0 0,-6.65743 0,-6.65743 m 0.16571,-0.27842 c 0,0 -0.16571,0.27842 -0.16571,0.27842 0,0 0,0 0,0 0,0 0,6.65743 0,6.65743 0,0 0,0 0,0 0,0 0.16571,-0.27842 0.16571,-0.27842 0,0 0,-6.65743 0,-6.65743 m 0.16571,-0.27842 c 0,0 -0.16571,0.27842 -0.16571,0.27842 0,0 0,0 0,0 0,0 0,6.65743 0,6.65743 0,0 0,0 0,0 0,0 0.16571,-0.27842 0.16571,-0.27842 0,0 0,-6.65743 0,-6.65743 m 0.16572,-0.27843 c 0,0 -0.16572,0.27843 -0.16572,0.27843 0,0 0,0 0,0 0,0 0,6.65743 0,6.65743 0,0 0,0 0,0 0,0 0.16572,-0.27843 0.16572,-0.27843 0,0 0,-6.65743 0,-6.65743 m 0.16571,-0.27842 c 0,0 -0.16571,0.27842 -0.16571,0.27842 0,0 0,0 0,0 0,0 0,6.65743 0,6.65743 0,0 0,0 0,0 0,0 0.16571,-0.27842 0.16571,-0.27842 0,0 0,-6.65743 0,-6.65743 m 0.16571,-0.27843 c 0,0 -0.16571,0.27843 -0.16571,0.27843 0,0 0,0 0,0 0,0 0,6.65743 0,6.65743 0,0 0,0 0,0 0,0 0.16571,-0.27843 0.16571,-0.27843 0,0 0,-6.65743 0,-6.65743 m 0.16571,-0.27842 c 0,0 -0.16571,0.27842 -0.16571,0.27842 0,0 0,0 0,0 0,0 0,6.65743 0,6.65743 0,0 0,0 0,0 0,0 0.16571,-0.27842 0.16571,-0.27842 0,0 0,-6.65743 0,-6.65743 m 0.16572,-0.27843 c 0,0 -0.16572,0.27843 -0.16572,0.27843 0,0 0,0 0,0 0,0 0,6.65743 0,6.65743 0,0 0,0 0,0 0,0 0.16572,-0.27843 0.16572,-0.27843 0,0 0,-6.65743 0,-6.65743 m 0.16571,-0.27842 c 0,0 -0.16571,0.27842 -0.16571,0.27842 0,0 0,0 0,0 0,0 0,6.65743 0,6.65743 0,0 0,0 0,0 0,0 0.16571,-0.27842 0.16571,-0.27842 0,0 0,-6.65743 0,-6.65743 m 0.16571,-0.27843 c 0,0 -0.16571,0.27843 -0.16571,0.27843 0,0 0,0 0,0 0,0 0,6.65743 0,6.65743 0,0 0,0 0,0 0,0 0.16571,-0.27843 0.16571,-0.27843 0,0 0,-6.65743 0,-6.65743" />
    </g>
    <text
       xml:space="preserve"
       style="font-size:20px;font-style:normal;font-variant:normal;font-weight:normal;font-stretch:normal;text-align:start;line-height:125%;letter-spacing:0px;word-spacing:0px;writing-mode:lr-tb;text-anchor:start;fill:#000000;fill-opacity:1;stroke:none;font-family:URW Bookman L;-inkscape-font-specification:URW Bookman L"
       x="386.48703"
       y="197.86075"
       id="text54913"
       sodipodi:linespacing="125%"><tspan
         sodipodi:role="line"
         id="tspan54915"
         x="386.48703"
         y="197.86075">Kite</tspan></text>
  </g>
</svg>
